<svg xmlns="http://www.w3.org/2000/svg" xmlns:xlink="http://www.w3.org/1999/xlink" width="500" zoomAndPan="magnify" viewBox="0 0 375 374.999991" height="500" preserveAspectRatio="xMidYMid meet" version="1.0"><defs><g/><clipPath id="79bdaacfb4"><path d="M 155.199219 155.28125 L 219.699219 155.28125 L 219.699219 219.78125 L 155.199219 219.78125 Z M 155.199219 155.28125 " clip-rule="nonzero"/></clipPath></defs><path fill="#ffffff" d="M 167.574219 191.023438 L 165.65625 192.757812 L 165.65625 194.855469 L 176.179688 194.855469 L 176.179688 192.003906 L 170.585938 192.003906 L 170.585938 191.957031 L 171.957031 190.816406 C 174.101562 188.898438 175.90625 186.914062 175.90625 184.425781 C 175.90625 181.734375 174.054688 179.769531 170.703125 179.769531 C 168.691406 179.769531 166.957031 180.453125 165.839844 181.300781 L 166.820312 183.789062 C 167.597656 183.195312 168.714844 182.554688 169.992188 182.554688 C 171.707031 182.554688 172.4375 183.511719 172.4375 184.722656 C 172.390625 186.457031 170.816406 188.125 167.574219 191.023438 " fill-opacity="1" fill-rule="nonzero"/><path fill="#ffffff" d="M 181.132812 188.71875 L 181.132812 188.671875 L 183.117188 185.429688 C 183.621094 184.496094 184.007812 183.628906 184.488281 182.667969 L 184.578125 182.667969 C 184.511719 183.628906 184.464844 184.539062 184.464844 185.429688 L 184.464844 188.71875 Z M 187.75 194.855469 L 187.75 191.320312 L 189.53125 191.320312 L 189.53125 188.71875 L 187.75 188.71875 L 187.75 180.019531 L 183.503906 180.019531 L 177.890625 189.058594 L 177.890625 191.320312 L 184.464844 191.320312 L 184.464844 194.855469 L 187.75 194.855469 " fill-opacity="1" fill-rule="nonzero"/><path fill="#ffffff" d="M 192.703125 195.769531 L 197.589844 179.222656 L 195.28125 179.222656 L 190.398438 195.769531 L 192.703125 195.769531 " fill-opacity="1" fill-rule="nonzero"/><path fill="#ffffff" d="M 199.390625 194.855469 L 203.066406 194.855469 L 209.183594 182.210938 L 209.183594 180.019531 L 198.707031 180.019531 L 198.707031 182.875 L 205.507812 182.875 L 205.507812 182.917969 L 199.390625 194.855469 " fill-opacity="1" fill-rule="nonzero"/><g clip-path="url(#79bdaacfb4)"><path fill="#ffffff" d="M 219.609375 186.199219 L 213.910156 186.429688 C 214.207031 193.804688 211.382812 201.027344 206.167969 206.242188 C 195.828125 216.582031 179.007812 216.582031 168.671875 206.242188 C 158.335938 195.90625 158.335938 179.085938 168.671875 168.75 C 179.007812 158.410156 195.828125 158.410156 206.167969 168.75 L 203.132812 171.78125 L 213.230469 171.78125 L 213.230469 161.683594 L 210.199219 164.71875 C 204.113281 158.632812 196.023438 155.28125 187.417969 155.28125 C 178.816406 155.28125 170.726562 158.632812 164.640625 164.71875 C 158.554688 170.800781 155.207031 178.890625 155.207031 187.496094 C 155.207031 196.101562 158.554688 204.191406 164.640625 210.273438 C 170.726562 216.359375 178.816406 219.710938 187.417969 219.710938 C 196.023438 219.710938 204.113281 216.359375 210.199219 210.273438 C 213.433594 207.039062 215.898438 203.246094 217.515625 199.003906 C 219.082031 194.90625 219.785156 190.597656 219.609375 186.199219 " fill-opacity="1" fill-rule="nonzero"/></g><g fill="#ffffff" fill-opacity="1"><g transform="translate(99.310546, 258.450597)"><g><path d="M 14.15625 -5.484375 C 14.15625 -3.703125 13.515625 -2.296875 12.234375 -1.265625 C 10.953125 -0.242188 9.164062 0.265625 6.875 0.265625 C 4.757812 0.265625 2.890625 -0.128906 1.265625 -0.921875 L 1.265625 -4.8125 C 2.609375 -4.21875 3.738281 -3.796875 4.65625 -3.546875 C 5.582031 -3.304688 6.429688 -3.1875 7.203125 -3.1875 C 8.117188 -3.1875 8.820312 -3.363281 9.3125 -3.71875 C 9.800781 -4.070312 10.046875 -4.59375 10.046875 -5.28125 C 10.046875 -5.675781 9.9375 -6.023438 9.71875 -6.328125 C 9.507812 -6.628906 9.191406 -6.914062 8.765625 -7.1875 C 8.347656 -7.46875 7.492188 -7.914062 6.203125 -8.53125 C 4.992188 -9.101562 4.085938 -9.648438 3.484375 -10.171875 C 2.878906 -10.691406 2.394531 -11.300781 2.03125 -12 C 1.675781 -12.695312 1.5 -13.507812 1.5 -14.4375 C 1.5 -16.1875 2.09375 -17.5625 3.28125 -18.5625 C 4.46875 -19.5625 6.109375 -20.0625 8.203125 -20.0625 C 9.222656 -20.0625 10.203125 -19.9375 11.140625 -19.6875 C 12.078125 -19.445312 13.050781 -19.109375 14.0625 -18.671875 L 12.71875 -15.40625 C 11.65625 -15.84375 10.78125 -16.144531 10.09375 -16.3125 C 9.40625 -16.488281 8.726562 -16.578125 8.0625 -16.578125 C 7.269531 -16.578125 6.660156 -16.390625 6.234375 -16.015625 C 5.804688 -15.648438 5.59375 -15.164062 5.59375 -14.5625 C 5.59375 -14.195312 5.675781 -13.875 5.84375 -13.59375 C 6.019531 -13.320312 6.296875 -13.054688 6.671875 -12.796875 C 7.046875 -12.546875 7.929688 -12.085938 9.328125 -11.421875 C 11.179688 -10.535156 12.445312 -9.644531 13.125 -8.75 C 13.8125 -7.863281 14.15625 -6.773438 14.15625 -5.484375 Z M 14.15625 -5.484375 "/></g></g></g><g fill="#ffffff" fill-opacity="1"><g transform="translate(114.568906, 258.450597)"><g><path d="M 12.875 0 L 12.328125 -1.9375 L 12.109375 -1.9375 C 11.660156 -1.226562 11.03125 -0.679688 10.21875 -0.296875 C 9.414062 0.078125 8.492188 0.265625 7.453125 0.265625 C 5.671875 0.265625 4.328125 -0.207031 3.421875 -1.15625 C 2.523438 -2.101562 2.078125 -3.472656 2.078125 -5.265625 L 2.078125 -15.125 L 6.203125 -15.125 L 6.203125 -6.296875 C 6.203125 -5.203125 6.394531 -4.378906 6.78125 -3.828125 C 7.175781 -3.285156 7.796875 -3.015625 8.640625 -3.015625 C 9.796875 -3.015625 10.628906 -3.398438 11.140625 -4.171875 C 11.660156 -4.941406 11.921875 -6.222656 11.921875 -8.015625 L 11.921875 -15.125 L 16.046875 -15.125 L 16.046875 0 Z M 12.875 0 "/></g></g></g><g fill="#ffffff" fill-opacity="1"><g transform="translate(132.776134, 258.450597)"><g><path d="M 10.46875 0.265625 C 8.695312 0.265625 7.304688 -0.375 6.296875 -1.65625 L 6.078125 -1.65625 C 6.222656 -0.394531 6.296875 0.332031 6.296875 0.53125 L 6.296875 6.65625 L 2.171875 6.65625 L 2.171875 -15.125 L 5.515625 -15.125 L 6.09375 -13.15625 L 6.296875 -13.15625 C 7.253906 -14.65625 8.679688 -15.40625 10.578125 -15.40625 C 12.359375 -15.40625 13.753906 -14.710938 14.765625 -13.328125 C 15.773438 -11.953125 16.28125 -10.039062 16.28125 -7.59375 C 16.28125 -5.976562 16.039062 -4.570312 15.5625 -3.375 C 15.09375 -2.1875 14.421875 -1.28125 13.546875 -0.65625 C 12.671875 -0.0390625 11.644531 0.265625 10.46875 0.265625 Z M 9.25 -12.109375 C 8.226562 -12.109375 7.484375 -11.789062 7.015625 -11.15625 C 6.546875 -10.53125 6.304688 -9.5 6.296875 -8.0625 L 6.296875 -7.609375 C 6.296875 -5.992188 6.535156 -4.832031 7.015625 -4.125 C 7.492188 -3.425781 8.257812 -3.078125 9.3125 -3.078125 C 11.15625 -3.078125 12.078125 -4.597656 12.078125 -7.640625 C 12.078125 -9.128906 11.847656 -10.242188 11.390625 -10.984375 C 10.941406 -11.734375 10.226562 -12.109375 9.25 -12.109375 Z M 9.25 -12.109375 "/></g></g></g><g fill="#ffffff" fill-opacity="1"><g transform="translate(150.307017, 258.450597)"><g><path d="M 10.46875 0.265625 C 8.695312 0.265625 7.304688 -0.375 6.296875 -1.65625 L 6.078125 -1.65625 C 6.222656 -0.394531 6.296875 0.332031 6.296875 0.53125 L 6.296875 6.65625 L 2.171875 6.65625 L 2.171875 -15.125 L 5.515625 -15.125 L 6.09375 -13.15625 L 6.296875 -13.15625 C 7.253906 -14.65625 8.679688 -15.40625 10.578125 -15.40625 C 12.359375 -15.40625 13.753906 -14.710938 14.765625 -13.328125 C 15.773438 -11.953125 16.28125 -10.039062 16.28125 -7.59375 C 16.28125 -5.976562 16.039062 -4.570312 15.5625 -3.375 C 15.09375 -2.1875 14.421875 -1.28125 13.546875 -0.65625 C 12.671875 -0.0390625 11.644531 0.265625 10.46875 0.265625 Z M 9.25 -12.109375 C 8.226562 -12.109375 7.484375 -11.789062 7.015625 -11.15625 C 6.546875 -10.53125 6.304688 -9.5 6.296875 -8.0625 L 6.296875 -7.609375 C 6.296875 -5.992188 6.535156 -4.832031 7.015625 -4.125 C 7.492188 -3.425781 8.257812 -3.078125 9.3125 -3.078125 C 11.15625 -3.078125 12.078125 -4.597656 12.078125 -7.640625 C 12.078125 -9.128906 11.847656 -10.242188 11.390625 -10.984375 C 10.941406 -11.734375 10.226562 -12.109375 9.25 -12.109375 Z M 9.25 -12.109375 "/></g></g></g><g fill="#ffffff" fill-opacity="1"><g transform="translate(167.8379, 258.450597)"><g><path d="M 5.453125 -7.59375 C 5.453125 -6.09375 5.695312 -4.957031 6.1875 -4.1875 C 6.675781 -3.425781 7.476562 -3.046875 8.59375 -3.046875 C 9.6875 -3.046875 10.472656 -3.425781 10.953125 -4.1875 C 11.441406 -4.945312 11.6875 -6.082031 11.6875 -7.59375 C 11.6875 -9.082031 11.441406 -10.203125 10.953125 -10.953125 C 10.460938 -11.703125 9.664062 -12.078125 8.5625 -12.078125 C 7.457031 -12.078125 6.660156 -11.703125 6.171875 -10.953125 C 5.691406 -10.210938 5.453125 -9.09375 5.453125 -7.59375 Z M 15.90625 -7.59375 C 15.90625 -5.125 15.253906 -3.195312 13.953125 -1.8125 C 12.660156 -0.425781 10.851562 0.265625 8.53125 0.265625 C 7.082031 0.265625 5.800781 -0.0507812 4.6875 -0.6875 C 3.582031 -1.320312 2.734375 -2.234375 2.140625 -3.421875 C 1.546875 -4.609375 1.25 -6 1.25 -7.59375 C 1.25 -10.0625 1.890625 -11.976562 3.171875 -13.34375 C 4.460938 -14.71875 6.273438 -15.40625 8.609375 -15.40625 C 10.066406 -15.40625 11.347656 -15.085938 12.453125 -14.453125 C 13.566406 -13.828125 14.421875 -12.921875 15.015625 -11.734375 C 15.609375 -10.554688 15.90625 -9.175781 15.90625 -7.59375 Z M 15.90625 -7.59375 "/></g></g></g><g fill="#ffffff" fill-opacity="1"><g transform="translate(184.990029, 258.450597)"><g><path d="M 10.609375 -15.40625 C 11.160156 -15.40625 11.625 -15.363281 12 -15.28125 L 11.6875 -11.421875 C 11.351562 -11.503906 10.945312 -11.546875 10.46875 -11.546875 C 9.15625 -11.546875 8.128906 -11.207031 7.390625 -10.53125 C 6.660156 -9.851562 6.296875 -8.910156 6.296875 -7.703125 L 6.296875 0 L 2.171875 0 L 2.171875 -15.125 L 5.28125 -15.125 L 5.890625 -12.578125 L 6.09375 -12.578125 C 6.5625 -13.429688 7.195312 -14.113281 8 -14.625 C 8.800781 -15.144531 9.671875 -15.40625 10.609375 -15.40625 Z M 10.609375 -15.40625 "/></g></g></g><g fill="#ffffff" fill-opacity="1"><g transform="translate(197.570061, 258.450597)"><g><path d="M 8.53125 -3.015625 C 9.257812 -3.015625 10.125 -3.171875 11.125 -3.484375 L 11.125 -0.421875 C 10.101562 0.0351562 8.84375 0.265625 7.34375 0.265625 C 5.695312 0.265625 4.492188 -0.148438 3.734375 -0.984375 C 2.984375 -1.816406 2.609375 -3.066406 2.609375 -4.734375 L 2.609375 -12.03125 L 0.640625 -12.03125 L 0.640625 -13.765625 L 2.90625 -15.15625 L 4.09375 -18.34375 L 6.734375 -18.34375 L 6.734375 -15.125 L 10.96875 -15.125 L 10.96875 -12.03125 L 6.734375 -12.03125 L 6.734375 -4.734375 C 6.734375 -4.148438 6.894531 -3.71875 7.21875 -3.4375 C 7.550781 -3.15625 7.988281 -3.015625 8.53125 -3.015625 Z M 8.53125 -3.015625 "/></g></g></g><g fill="#ffffff" fill-opacity="1"><g transform="translate(209.595489, 258.450597)"><g/></g></g><g fill="#ffffff" fill-opacity="1"><g transform="translate(216.791808, 258.450597)"><g><path d="M 14.9375 0 L 1.109375 0 L 1.109375 -2.90625 L 6.078125 -7.921875 C 7.546875 -9.429688 8.503906 -10.476562 8.953125 -11.0625 C 9.398438 -11.644531 9.722656 -12.179688 9.921875 -12.671875 C 10.117188 -13.171875 10.21875 -13.6875 10.21875 -14.21875 C 10.21875 -15.007812 10 -15.597656 9.5625 -15.984375 C 9.132812 -16.378906 8.550781 -16.578125 7.8125 -16.578125 C 7.050781 -16.578125 6.304688 -16.398438 5.578125 -16.046875 C 4.859375 -15.691406 4.109375 -15.191406 3.328125 -14.546875 L 1.0625 -17.234375 C 2.03125 -18.066406 2.832031 -18.648438 3.46875 -18.984375 C 4.113281 -19.328125 4.8125 -19.59375 5.5625 -19.78125 C 6.320312 -19.96875 7.171875 -20.0625 8.109375 -20.0625 C 9.347656 -20.0625 10.441406 -19.832031 11.390625 -19.375 C 12.335938 -18.925781 13.070312 -18.296875 13.59375 -17.484375 C 14.113281 -16.671875 14.375 -15.742188 14.375 -14.703125 C 14.375 -13.796875 14.210938 -12.941406 13.890625 -12.140625 C 13.578125 -11.335938 13.082031 -10.515625 12.40625 -9.671875 C 11.738281 -8.835938 10.554688 -7.644531 8.859375 -6.09375 L 6.3125 -3.703125 L 6.3125 -3.515625 L 14.9375 -3.515625 Z M 14.9375 0 "/></g></g></g><g fill="#ffffff" fill-opacity="1"><g transform="translate(232.604772, 258.450597)"><g><path d="M 15.375 -4.09375 L 13 -4.09375 L 13 0 L 8.921875 0 L 8.921875 -4.09375 L 0.46875 -4.09375 L 0.46875 -7 L 9.140625 -19.78125 L 13 -19.78125 L 13 -7.34375 L 15.375 -7.34375 Z M 8.921875 -7.34375 L 8.921875 -10.703125 C 8.921875 -11.253906 8.941406 -12.0625 8.984375 -13.125 C 9.023438 -14.195312 9.0625 -14.816406 9.09375 -14.984375 L 8.984375 -14.984375 C 8.648438 -14.242188 8.25 -13.523438 7.78125 -12.828125 L 4.15625 -7.34375 Z M 8.921875 -7.34375 "/></g></g></g><g fill="#ffffff" fill-opacity="1"><g transform="translate(248.417737, 258.450597)"><g><path d="M 11.3125 -19.78125 L 3.9375 0 L 0.1875 0 L 7.5625 -19.78125 Z M 11.3125 -19.78125 "/></g></g></g><g fill="#ffffff" fill-opacity="1"><g transform="translate(259.861507, 258.450597)"><g><path d="M 3.078125 0 L 10.5 -16.234375 L 0.75 -16.234375 L 0.75 -19.75 L 14.9375 -19.75 L 14.9375 -17.125 L 7.453125 0 Z M 3.078125 0 "/></g></g></g></svg>