<svg xmlns="http://www.w3.org/2000/svg" xmlns:xlink="http://www.w3.org/1999/xlink" width="500" zoomAndPan="magnify" viewBox="0 0 375 374.999991" height="500" preserveAspectRatio="xMidYMid meet" version="1.0"><defs><g/><clipPath id="71e873e2d5"><path d="M 155 153.402344 L 220 153.402344 L 220 221.652344 L 155 221.652344 Z M 155 153.402344 " clip-rule="nonzero"/></clipPath></defs><g clip-path="url(#71e873e2d5)"><path fill="#ffffff" d="M 210.566406 208.183594 C 211.296875 207.425781 211.992188 206.632812 212.644531 205.804688 C 213.296875 204.976562 213.90625 204.121094 214.476562 203.230469 C 215.042969 202.34375 215.566406 201.429688 216.046875 200.488281 C 216.523438 199.550781 216.953125 198.589844 217.339844 197.609375 C 217.722656 196.625 218.054688 195.625 218.339844 194.613281 C 218.625 193.597656 218.859375 192.570312 219.042969 191.53125 C 219.226562 190.492188 219.355469 189.449219 219.4375 188.398438 C 219.519531 187.347656 219.546875 186.292969 219.523438 185.238281 C 219.5 184.1875 219.421875 183.136719 219.296875 182.089844 C 219.167969 181.042969 218.988281 180.003906 218.757812 178.976562 C 218.53125 177.945312 218.25 176.933594 217.917969 175.929688 C 217.589844 174.929688 217.210938 173.945312 216.785156 172.984375 C 216.355469 172.019531 215.882812 171.078125 215.363281 170.160156 C 214.84375 169.246094 214.277344 168.355469 213.671875 167.492188 C 213.0625 166.632812 212.414062 165.804688 211.726562 165.003906 C 211.035156 164.207031 210.308594 163.445312 209.542969 162.722656 C 208.777344 161.996094 207.980469 161.308594 207.148438 160.664062 C 206.3125 160.015625 205.453125 159.410156 204.558594 158.851562 C 203.667969 158.289062 202.75 157.773438 201.804688 157.300781 C 200.863281 156.832031 199.898438 156.40625 198.914062 156.03125 C 197.929688 155.65625 196.925781 155.328125 195.910156 155.050781 C 194.894531 154.777344 193.863281 154.550781 192.824219 154.375 C 191.785156 154.199219 190.738281 154.074219 189.6875 154.003906 C 188.636719 153.929688 187.582031 153.910156 186.53125 153.941406 C 185.476562 153.972656 184.425781 154.058594 183.378906 154.191406 C 182.335938 154.328125 181.300781 154.515625 180.273438 154.753906 C 179.246094 154.992188 178.230469 155.277344 177.234375 155.617188 C 176.234375 155.953125 175.253906 156.339844 174.292969 156.773438 C 173.332031 157.210938 172.398438 157.691406 171.484375 158.21875 C 170.570312 158.746094 169.6875 159.316406 168.828125 159.929688 C 167.972656 160.542969 167.148438 161.199219 166.355469 161.894531 C 165.5625 162.589844 164.808594 163.324219 164.089844 164.09375 C 163.367188 164.863281 162.6875 165.667969 162.046875 166.507812 C 161.40625 167.34375 160.808594 168.210938 160.253906 169.105469 C 159.699219 170.003906 159.191406 170.925781 158.726562 171.871094 C 158.265625 172.820312 157.847656 173.785156 157.480469 174.773438 C 157.113281 175.761719 156.792969 176.765625 156.523438 177.785156 C 156.253906 178.804688 156.039062 179.835938 155.871094 180.875 C 155.703125 181.917969 155.585938 182.964844 155.523438 184.015625 C 155.457031 185.066406 155.445312 186.121094 155.488281 187.175781 C 155.527344 188.226562 155.617188 189.277344 155.761719 190.320312 C 155.90625 191.367188 156.101562 192.398438 156.34375 193.425781 C 156.589844 194.449219 156.886719 195.460938 157.230469 196.457031 C 157.578125 197.453125 157.972656 198.429688 158.414062 199.386719 C 158.855469 200.34375 159.34375 201.277344 159.878906 202.1875 C 160.410156 203.097656 160.988281 203.976562 161.609375 204.828125 C 162.230469 205.679688 162.890625 206.5 163.59375 207.285156 C 164.296875 208.074219 165.035156 208.824219 165.808594 209.535156 L 163.996094 217.480469 C 163.945312 217.703125 163.917969 217.929688 163.914062 218.15625 C 163.910156 218.386719 163.933594 218.613281 163.976562 218.835938 C 164.019531 219.0625 164.085938 219.277344 164.175781 219.488281 C 164.265625 219.699219 164.378906 219.898438 164.507812 220.085938 C 164.640625 220.273438 164.789062 220.445312 164.957031 220.601562 C 165.125 220.757812 165.304688 220.894531 165.503906 221.011719 C 165.699219 221.132812 165.90625 221.226562 166.121094 221.300781 C 166.335938 221.378906 166.558594 221.429688 166.785156 221.457031 C 166.914062 221.457031 167.042969 221.480469 167.167969 221.480469 C 167.546875 221.472656 167.914062 221.402344 168.273438 221.269531 C 168.628906 221.136719 168.953125 220.953125 169.246094 220.710938 C 169.539062 220.46875 169.785156 220.1875 169.984375 219.863281 C 170.183594 219.542969 170.324219 219.195312 170.40625 218.824219 L 171.566406 213.761719 C 172.855469 214.503906 174.1875 215.152344 175.570312 215.710938 C 176.949219 216.265625 178.359375 216.722656 179.804688 217.082031 C 181.25 217.441406 182.710938 217.699219 184.191406 217.851562 C 185.671875 218.007812 187.152344 218.058594 188.640625 218.003906 C 190.128906 217.949219 191.605469 217.792969 193.070312 217.535156 C 194.535156 217.273438 195.972656 216.914062 197.386719 216.453125 C 198.800781 215.988281 200.179688 215.433594 201.515625 214.777344 C 202.851562 214.125 204.136719 213.378906 205.367188 212.546875 L 207.292969 216.664062 C 207.566406 217.238281 207.96875 217.699219 208.507812 218.042969 C 209.042969 218.382812 209.632812 218.554688 210.269531 218.554688 C 210.542969 218.554688 210.8125 218.519531 211.078125 218.449219 C 211.34375 218.378906 211.597656 218.277344 211.835938 218.148438 C 212.078125 218.015625 212.296875 217.851562 212.496094 217.664062 C 212.699219 217.476562 212.871094 217.269531 213.019531 217.035156 C 213.164062 216.804688 213.28125 216.558594 213.367188 216.296875 C 213.453125 216.035156 213.503906 215.769531 213.523438 215.496094 C 213.539062 215.222656 213.523438 214.949219 213.472656 214.679688 C 213.425781 214.410156 213.339844 214.148438 213.226562 213.902344 Z M 204.40625 210.476562 C 203.234375 211.289062 202.011719 212.011719 200.734375 212.648438 C 199.457031 213.285156 198.140625 213.828125 196.78125 214.273438 C 195.425781 214.722656 194.046875 215.070312 192.640625 215.316406 C 191.234375 215.5625 189.820312 215.707031 188.394531 215.75 C 186.964844 215.792969 185.542969 215.734375 184.125 215.570312 C 182.707031 215.40625 181.308594 215.144531 179.929688 214.777344 C 178.550781 214.414062 177.203125 213.949219 175.890625 213.390625 C 174.578125 212.832031 173.3125 212.179688 172.089844 211.4375 L 173.28125 206.238281 C 174.335938 206.984375 175.445312 207.640625 176.605469 208.214844 C 177.765625 208.785156 178.964844 209.261719 180.199219 209.644531 C 181.433594 210.023438 182.691406 210.308594 183.972656 210.492188 C 185.253906 210.675781 186.539062 210.761719 187.832031 210.742188 C 189.125 210.722656 190.410156 210.605469 191.683594 210.382812 C 192.957031 210.164062 194.207031 209.84375 195.433594 209.429688 C 196.65625 209.011719 197.839844 208.5 198.984375 207.898438 C 200.128906 207.296875 201.21875 206.605469 202.253906 205.832031 Z M 167.070312 219.222656 C 166.925781 219.207031 166.789062 219.160156 166.664062 219.085938 C 166.539062 219.011719 166.433594 218.917969 166.351562 218.796875 C 166.265625 218.679688 166.210938 218.546875 166.183594 218.40625 C 166.15625 218.261719 166.15625 218.121094 166.1875 217.980469 L 175.902344 175.488281 C 176.613281 175.789062 177.253906 176.203125 177.820312 176.730469 C 178.386719 177.257812 178.847656 177.867188 179.199219 178.554688 C 179.550781 179.242188 179.773438 179.972656 179.871094 180.738281 C 179.964844 181.507812 179.925781 182.269531 179.753906 183.023438 L 176.203125 198.648438 C 175.703125 198.652344 175.21875 198.738281 174.75 198.902344 C 174.28125 199.070312 173.851562 199.3125 173.464844 199.625 C 173.074219 199.933594 172.75 200.300781 172.484375 200.726562 C 172.21875 201.148438 172.03125 201.601562 171.921875 202.085938 L 168.210938 218.3125 C 168.164062 218.566406 168.042969 218.777344 167.851562 218.949219 C 167.660156 219.121094 167.433594 219.214844 167.179688 219.230469 C 167.140625 219.230469 167.105469 219.230469 167.070312 219.222656 Z M 187.492188 156.203125 C 188.925781 156.203125 190.355469 156.304688 191.773438 156.511719 C 193.191406 156.71875 194.589844 157.023438 195.960938 157.433594 C 197.335938 157.839844 198.675781 158.34375 199.976562 158.945312 C 201.277344 159.546875 202.53125 160.238281 203.730469 161.019531 C 204.933594 161.800781 206.074219 162.667969 207.148438 163.613281 C 208.226562 164.558594 209.230469 165.578125 210.160156 166.671875 C 211.089844 167.761719 211.9375 168.914062 212.699219 170.128906 C 213.460938 171.34375 214.132812 172.605469 214.714844 173.914062 C 215.296875 175.226562 215.78125 176.574219 216.164062 177.953125 C 216.550781 179.332031 216.835938 180.734375 217.019531 182.15625 C 217.207031 183.578125 217.285156 185.007812 217.261719 186.441406 C 217.242188 187.875 217.117188 189.296875 216.886719 190.714844 C 216.660156 192.128906 216.332031 193.519531 215.902344 194.890625 C 215.472656 196.257812 214.945312 197.585938 214.324219 198.878906 C 213.703125 200.171875 212.992188 201.414062 212.191406 202.601562 C 211.390625 203.792969 210.507812 204.917969 209.546875 205.980469 L 207.199219 200.929688 C 207.789062 200.152344 208.335938 199.339844 208.828125 198.496094 C 209.324219 197.648438 209.769531 196.78125 210.160156 195.882812 C 210.554688 194.984375 210.890625 194.070312 211.175781 193.132812 C 211.460938 192.195312 211.6875 191.246094 211.855469 190.28125 C 212.027344 189.316406 212.140625 188.34375 212.195312 187.367188 C 212.253906 186.390625 212.25 185.414062 212.191406 184.4375 C 212.128906 183.460938 212.011719 182.488281 211.835938 181.527344 C 211.660156 180.5625 211.429688 179.613281 211.140625 178.675781 C 210.851562 177.742188 210.511719 176.828125 210.113281 175.929688 C 209.71875 175.035156 209.269531 174.167969 208.769531 173.324219 C 208.269531 172.484375 207.722656 171.675781 207.125 170.898438 C 206.53125 170.121094 205.890625 169.382812 205.207031 168.679688 C 204.523438 167.980469 203.800781 167.320312 203.042969 166.707031 C 202.28125 166.089844 201.484375 165.523438 200.65625 165 C 199.828125 164.480469 198.96875 164.011719 198.085938 163.589844 C 197.199219 163.171875 196.292969 162.804688 195.367188 162.496094 C 194.4375 162.183594 193.496094 161.925781 192.535156 161.726562 C 191.578125 161.527344 190.613281 161.382812 189.636719 161.296875 C 188.660156 161.214844 187.683594 161.1875 186.707031 161.214844 C 185.726562 161.246094 184.753906 161.335938 183.785156 161.480469 C 182.816406 161.628906 181.863281 161.832031 180.917969 162.089844 C 179.972656 162.351562 179.046875 162.664062 178.140625 163.035156 C 177.234375 163.402344 176.355469 163.824219 175.496094 164.296875 C 174.640625 164.773438 173.816406 165.296875 173.019531 165.867188 C 172.226562 166.4375 171.46875 167.054688 170.746094 167.71875 C 170.023438 168.378906 169.34375 169.082031 168.707031 169.824219 C 168.070312 170.566406 167.476562 171.34375 166.929688 172.15625 C 166.382812 172.96875 165.886719 173.8125 165.441406 174.683594 C 164.996094 175.554688 164.605469 176.449219 164.265625 177.367188 C 163.925781 178.285156 163.640625 179.21875 163.410156 180.171875 C 163.183594 181.125 163.011719 182.085938 162.894531 183.058594 C 162.78125 184.03125 162.722656 185.003906 162.722656 185.984375 C 162.71875 188.683594 163.148438 191.316406 164.015625 193.871094 C 164.878906 196.429688 166.136719 198.78125 167.777344 200.925781 L 166.382812 206.980469 C 165.347656 205.945312 164.398438 204.835938 163.527344 203.660156 C 162.65625 202.484375 161.878906 201.25 161.191406 199.957031 C 160.503906 198.667969 159.914062 197.332031 159.425781 195.953125 C 158.933594 194.574219 158.546875 193.167969 158.261719 191.730469 C 157.980469 190.296875 157.804688 188.847656 157.734375 187.386719 C 157.664062 185.925781 157.703125 184.464844 157.847656 183.007812 C 157.992188 181.554688 158.242188 180.117188 158.601562 178.695312 C 158.957031 177.277344 159.417969 175.894531 159.980469 174.542969 C 160.542969 173.191406 161.199219 171.886719 161.953125 170.632812 C 162.707031 169.378906 163.550781 168.1875 164.480469 167.058594 C 165.410156 165.925781 166.417969 164.871094 167.5 163.890625 C 168.585938 162.910156 169.738281 162.011719 170.957031 161.199219 C 172.175781 160.390625 173.445312 159.671875 174.769531 159.046875 C 176.089844 158.421875 177.453125 157.898438 178.855469 157.476562 C 180.253906 157.050781 181.679688 156.734375 183.125 156.519531 C 184.574219 156.308594 186.03125 156.203125 187.492188 156.203125 Z M 206.121094 198.621094 L 201.945312 189.675781 C 201.621094 189.023438 201.4375 188.339844 201.386719 187.617188 C 201.339844 186.890625 201.429688 186.1875 201.660156 185.5 C 201.988281 184.644531 202.132812 183.757812 202.097656 182.839844 C 202.0625 181.925781 201.847656 181.054688 201.460938 180.222656 L 197.730469 172.164062 C 197.597656 171.878906 197.382812 171.6875 197.089844 171.578125 C 196.804688 171.480469 196.523438 171.492188 196.246094 171.617188 L 195.992188 171.734375 C 195.765625 171.839844 195.59375 172.003906 195.476562 172.222656 C 195.355469 172.4375 195.3125 172.671875 195.347656 172.917969 L 196.3125 179.570312 L 192.265625 173.988281 C 192.109375 173.765625 191.898438 173.621094 191.636719 173.554688 C 191.375 173.484375 191.121094 173.507812 190.875 173.621094 C 190.632812 173.734375 190.449219 173.914062 190.335938 174.160156 C 190.21875 174.402344 190.195312 174.65625 190.261719 174.917969 L 191.933594 181.597656 L 187.460938 176.582031 C 187.296875 176.398438 187.09375 176.28125 186.847656 176.230469 C 186.605469 176.179688 186.371094 176.207031 186.148438 176.308594 L 185.894531 176.429688 C 185.757812 176.492188 185.640625 176.578125 185.539062 176.6875 C 185.4375 176.796875 185.359375 176.921875 185.308594 177.0625 C 185.257812 177.203125 185.234375 177.347656 185.242188 177.496094 C 185.246094 177.644531 185.28125 177.789062 185.34375 177.925781 L 189.089844 185.972656 C 189.472656 186.804688 190.003906 187.527344 190.679688 188.144531 C 191.359375 188.761719 192.128906 189.222656 192.996094 189.523438 C 193.671875 189.789062 194.273438 190.175781 194.796875 190.679688 C 195.320312 191.1875 195.730469 191.773438 196.019531 192.441406 L 201.28125 203.753906 C 200.3125 204.515625 199.28125 205.1875 198.199219 205.78125 C 197.113281 206.371094 195.988281 206.867188 194.824219 207.269531 C 193.65625 207.675781 192.464844 207.980469 191.25 208.1875 C 190.03125 208.394531 188.804688 208.5 187.570312 208.507812 C 186.335938 208.511719 185.109375 208.414062 183.890625 208.214844 C 182.675781 208.015625 181.480469 207.71875 180.3125 207.324219 C 179.140625 206.929688 178.011719 206.4375 176.925781 205.855469 C 175.835938 205.273438 174.804688 204.605469 173.824219 203.851562 L 174.113281 202.585938 C 174.167969 202.347656 174.261719 202.125 174.394531 201.917969 C 174.523438 201.707031 174.683594 201.527344 174.875 201.375 C 175.070312 201.222656 175.28125 201.101562 175.511719 201.023438 C 175.742188 200.941406 175.980469 200.898438 176.226562 200.898438 C 176.417969 200.898438 176.605469 200.921875 176.785156 200.96875 C 177.09375 201.050781 177.386719 201.011719 177.65625 200.84375 C 177.925781 200.679688 178.097656 200.441406 178.171875 200.132812 L 181.964844 183.523438 C 182.097656 182.960938 182.167969 182.386719 182.183594 181.808594 C 182.203125 181.226562 182.160156 180.652344 182.066406 180.082031 C 181.96875 179.507812 181.816406 178.953125 181.609375 178.410156 C 181.402344 177.867188 181.144531 177.351562 180.835938 176.863281 C 180.527344 176.371094 180.175781 175.914062 179.777344 175.492188 C 179.378906 175.070312 178.941406 174.691406 178.46875 174.359375 C 177.996094 174.023438 177.496094 173.734375 176.96875 173.5 C 176.4375 173.261719 175.890625 173.078125 175.324219 172.949219 C 175.242188 172.929688 175.15625 172.921875 175.070312 172.921875 C 174.808594 172.921875 174.574219 173.003906 174.371094 173.167969 C 174.164062 173.332031 174.035156 173.542969 173.976562 173.796875 L 168.457031 197.949219 C 167.316406 196.160156 166.449219 194.25 165.855469 192.210938 C 165.265625 190.171875 164.972656 188.09375 164.976562 185.972656 C 164.984375 185.238281 165.027344 184.511719 165.109375 183.78125 C 165.1875 183.054688 165.304688 182.332031 165.453125 181.617188 C 165.605469 180.898438 165.789062 180.191406 166.007812 179.496094 C 166.226562 178.796875 166.480469 178.109375 166.765625 177.4375 C 167.050781 176.761719 167.371094 176.105469 167.722656 175.460938 C 168.070312 174.820312 168.453125 174.195312 168.863281 173.589844 C 169.273438 172.984375 169.714844 172.398438 170.183594 171.835938 C 170.648438 171.273438 171.144531 170.734375 171.664062 170.222656 C 172.1875 169.707031 172.730469 169.21875 173.296875 168.757812 C 173.867188 168.296875 174.457031 167.863281 175.066406 167.460938 C 175.675781 167.054688 176.304688 166.683594 176.953125 166.339844 C 177.597656 165.996094 178.261719 165.6875 178.9375 165.410156 C 179.617188 165.128906 180.304688 164.886719 181.003906 164.675781 C 181.707031 164.464844 182.417969 164.289062 183.132812 164.144531 C 183.851562 164.003906 184.574219 163.898438 185.304688 163.828125 C 186.03125 163.753906 186.761719 163.71875 187.496094 163.71875 C 188.226562 163.71875 188.957031 163.753906 189.6875 163.828125 C 190.414062 163.898438 191.136719 164.003906 191.855469 164.144531 C 192.574219 164.289062 193.285156 164.464844 193.984375 164.675781 C 194.683594 164.886719 195.375 165.128906 196.050781 165.410156 C 196.726562 165.6875 197.390625 165.996094 198.039062 166.339844 C 198.683594 166.683594 199.3125 167.054688 199.921875 167.460938 C 200.535156 167.863281 201.121094 168.296875 201.691406 168.757812 C 202.257812 169.21875 202.804688 169.707031 203.324219 170.222656 C 203.84375 170.734375 204.339844 171.273438 204.808594 171.835938 C 205.277344 172.398438 205.714844 172.984375 206.125 173.589844 C 206.539062 174.195312 206.917969 174.820312 207.269531 175.460938 C 207.621094 176.105469 207.9375 176.761719 208.222656 177.4375 C 208.511719 178.109375 208.761719 178.796875 208.980469 179.496094 C 209.203125 180.191406 209.386719 180.898438 209.535156 181.617188 C 209.6875 182.332031 209.800781 183.054688 209.882812 183.78125 C 209.960938 184.511719 210.007812 185.238281 210.015625 185.972656 C 210.023438 188.230469 209.695312 190.4375 209.03125 192.59375 C 208.367188 194.753906 207.394531 196.761719 206.121094 198.625 Z M 193.75 187.402344 C 193.167969 187.199219 192.652344 186.890625 192.195312 186.476562 C 191.742188 186.0625 191.386719 185.578125 191.128906 185.019531 L 190.203125 183.035156 L 192.230469 185.304688 C 192.394531 185.488281 192.597656 185.605469 192.84375 185.65625 C 193.085938 185.707031 193.320312 185.679688 193.542969 185.578125 L 194.230469 185.257812 C 194.472656 185.144531 194.652344 184.964844 194.769531 184.722656 C 194.882812 184.480469 194.910156 184.230469 194.847656 183.972656 L 193.882812 180.058594 L 196.246094 183.328125 C 196.402344 183.546875 196.613281 183.691406 196.875 183.757812 C 197.132812 183.824219 197.386719 183.804688 197.632812 183.691406 L 198.320312 183.371094 C 198.542969 183.265625 198.714844 183.105469 198.835938 182.886719 C 198.953125 182.667969 198.996094 182.433594 198.960938 182.1875 L 198.496094 179.171875 L 199.421875 181.15625 C 199.679688 181.714844 199.820312 182.296875 199.84375 182.910156 C 199.867188 183.523438 199.773438 184.117188 199.554688 184.691406 C 199.214844 185.664062 199.078125 186.660156 199.136719 187.6875 C 199.195312 188.714844 199.453125 189.691406 199.902344 190.617188 L 211.167969 214.832031 C 211.226562 214.957031 211.257812 215.085938 211.261719 215.222656 C 211.269531 215.355469 211.246094 215.488281 211.199219 215.617188 C 211.152344 215.742188 211.085938 215.859375 210.992188 215.957031 C 210.902344 216.058594 210.792969 216.136719 210.667969 216.195312 C 210.546875 216.25 210.417969 216.28125 210.28125 216.289062 C 210.144531 216.292969 210.011719 216.273438 209.886719 216.226562 C 209.757812 216.179688 209.644531 216.109375 209.542969 216.019531 C 209.445312 215.925781 209.367188 215.820312 209.308594 215.695312 L 198.046875 191.484375 C 197.628906 190.546875 197.046875 189.722656 196.304688 189.015625 C 195.558594 188.308594 194.707031 187.773438 193.75 187.402344 Z M 193.75 187.402344 " fill-opacity="1" fill-rule="nonzero"/></g><g fill="#ffffff" fill-opacity="1"><g transform="translate(119.419919, 260.948772)"><g><path d="M 2.515625 -19.984375 L 8.734375 -19.984375 C 11.566406 -19.984375 13.625 -19.578125 14.90625 -18.765625 C 16.1875 -17.960938 16.828125 -16.6875 16.828125 -14.9375 C 16.828125 -13.738281 16.546875 -12.753906 15.984375 -11.984375 C 15.429688 -11.222656 14.6875 -10.765625 13.75 -10.609375 L 13.75 -10.46875 C 15.019531 -10.1875 15.9375 -9.65625 16.5 -8.875 C 17.0625 -8.101562 17.34375 -7.078125 17.34375 -5.796875 C 17.34375 -3.972656 16.679688 -2.550781 15.359375 -1.53125 C 14.046875 -0.507812 12.257812 0 10 0 L 2.515625 0 Z M 6.75 -12.078125 L 9.21875 -12.078125 C 10.363281 -12.078125 11.191406 -12.253906 11.703125 -12.609375 C 12.222656 -12.960938 12.484375 -13.550781 12.484375 -14.375 C 12.484375 -15.132812 12.203125 -15.679688 11.640625 -16.015625 C 11.078125 -16.347656 10.191406 -16.515625 8.984375 -16.515625 L 6.75 -16.515625 Z M 6.75 -8.703125 L 6.75 -3.5 L 9.515625 -3.5 C 10.679688 -3.5 11.539062 -3.722656 12.09375 -4.171875 C 12.65625 -4.617188 12.9375 -5.300781 12.9375 -6.21875 C 12.9375 -7.875 11.75 -8.703125 9.375 -8.703125 Z M 6.75 -8.703125 "/></g></g></g><g fill="#ffffff" fill-opacity="1"><g transform="translate(138.229793, 260.948772)"><g><path d="M 10.71875 -15.578125 C 11.28125 -15.578125 11.75 -15.535156 12.125 -15.453125 L 11.8125 -11.546875 C 11.476562 -11.628906 11.066406 -11.671875 10.578125 -11.671875 C 9.253906 -11.671875 8.21875 -11.328125 7.46875 -10.640625 C 6.726562 -9.960938 6.359375 -9.007812 6.359375 -7.78125 L 6.359375 0 L 2.1875 0 L 2.1875 -15.28125 L 5.34375 -15.28125 L 5.96875 -12.71875 L 6.171875 -12.71875 C 6.640625 -13.570312 7.273438 -14.257812 8.078125 -14.78125 C 8.890625 -15.3125 9.769531 -15.578125 10.71875 -15.578125 Z M 10.71875 -15.578125 "/></g></g></g><g fill="#ffffff" fill-opacity="1"><g transform="translate(150.942862, 260.948772)"><g><path d="M 8.515625 -12.609375 C 7.628906 -12.609375 6.9375 -12.328125 6.4375 -11.765625 C 5.9375 -11.203125 5.648438 -10.40625 5.578125 -9.375 L 11.4375 -9.375 C 11.414062 -10.40625 11.144531 -11.203125 10.625 -11.765625 C 10.101562 -12.328125 9.398438 -12.609375 8.515625 -12.609375 Z M 9.109375 0.28125 C 6.648438 0.28125 4.726562 -0.394531 3.34375 -1.75 C 1.957031 -3.113281 1.265625 -5.039062 1.265625 -7.53125 C 1.265625 -10.09375 1.898438 -12.070312 3.171875 -13.46875 C 4.453125 -14.875 6.222656 -15.578125 8.484375 -15.578125 C 10.648438 -15.578125 12.332031 -14.957031 13.53125 -13.71875 C 14.738281 -12.488281 15.34375 -10.789062 15.34375 -8.625 L 15.34375 -6.609375 L 5.484375 -6.609375 C 5.523438 -5.421875 5.875 -4.492188 6.53125 -3.828125 C 7.1875 -3.160156 8.109375 -2.828125 9.296875 -2.828125 C 10.210938 -2.828125 11.082031 -2.921875 11.90625 -3.109375 C 12.726562 -3.304688 13.585938 -3.613281 14.484375 -4.03125 L 14.484375 -0.8125 C 13.753906 -0.445312 12.972656 -0.175781 12.140625 0 C 11.304688 0.1875 10.296875 0.28125 9.109375 0.28125 Z M 9.109375 0.28125 "/></g></g></g><g fill="#ffffff" fill-opacity="1"><g transform="translate(167.483522, 260.948772)"><g><path d="M 11.890625 0 L 11.09375 -2.078125 L 10.984375 -2.078125 C 10.273438 -1.191406 9.550781 -0.578125 8.8125 -0.234375 C 8.070312 0.109375 7.101562 0.28125 5.90625 0.28125 C 4.4375 0.28125 3.28125 -0.140625 2.4375 -0.984375 C 1.59375 -1.828125 1.171875 -3.019531 1.171875 -4.5625 C 1.171875 -6.1875 1.738281 -7.382812 2.875 -8.15625 C 4.007812 -8.925781 5.722656 -9.351562 8.015625 -9.4375 L 10.671875 -9.515625 L 10.671875 -10.1875 C 10.671875 -11.738281 9.875 -12.515625 8.28125 -12.515625 C 7.0625 -12.515625 5.628906 -12.144531 3.984375 -11.40625 L 2.59375 -14.21875 C 4.351562 -15.132812 6.304688 -15.59375 8.453125 -15.59375 C 10.503906 -15.59375 12.078125 -15.144531 13.171875 -14.25 C 14.265625 -13.363281 14.8125 -12.007812 14.8125 -10.1875 L 14.8125 0 Z M 10.671875 -7.078125 L 9.046875 -7.03125 C 7.835938 -6.988281 6.9375 -6.765625 6.34375 -6.359375 C 5.75 -5.960938 5.453125 -5.359375 5.453125 -4.546875 C 5.453125 -3.367188 6.128906 -2.78125 7.484375 -2.78125 C 8.441406 -2.78125 9.210938 -3.054688 9.796875 -3.609375 C 10.378906 -4.160156 10.671875 -4.898438 10.671875 -5.828125 Z M 10.671875 -7.078125 "/></g></g></g><g fill="#ffffff" fill-opacity="1"><g transform="translate(184.393277, 260.948772)"><g><path d="M 6.1875 -8.3125 L 8.015625 -10.640625 L 12.296875 -15.28125 L 17 -15.28125 L 10.921875 -8.65625 L 17.359375 0 L 12.546875 0 L 8.15625 -6.1875 L 6.359375 -4.765625 L 6.359375 0 L 2.1875 0 L 2.1875 -21.28125 L 6.359375 -21.28125 L 6.359375 -11.78125 L 6.140625 -8.3125 Z M 6.1875 -8.3125 "/></g></g></g><g fill="#ffffff" fill-opacity="1"><g transform="translate(201.754134, 260.948772)"><g><path d="M 10.640625 -12.15625 L 7.03125 -12.15625 L 7.03125 0 L 2.859375 0 L 2.859375 -12.15625 L 0.5625 -12.15625 L 0.5625 -14.171875 L 2.859375 -15.28125 L 2.859375 -16.40625 C 2.859375 -18.144531 3.285156 -19.414062 4.140625 -20.21875 C 4.992188 -21.019531 6.367188 -21.421875 8.265625 -21.421875 C 9.703125 -21.421875 10.976562 -21.207031 12.09375 -20.78125 L 11.03125 -17.71875 C 10.195312 -17.976562 9.421875 -18.109375 8.703125 -18.109375 C 8.117188 -18.109375 7.691406 -17.929688 7.421875 -17.578125 C 7.160156 -17.234375 7.03125 -16.789062 7.03125 -16.25 L 7.03125 -15.28125 L 10.640625 -15.28125 Z M 10.640625 -12.15625 "/></g></g></g><g fill="#ffffff" fill-opacity="1"><g transform="translate(212.594424, 260.948772)"><g><path d="M 11.890625 0 L 11.09375 -2.078125 L 10.984375 -2.078125 C 10.273438 -1.191406 9.550781 -0.578125 8.8125 -0.234375 C 8.070312 0.109375 7.101562 0.28125 5.90625 0.28125 C 4.4375 0.28125 3.28125 -0.140625 2.4375 -0.984375 C 1.59375 -1.828125 1.171875 -3.019531 1.171875 -4.5625 C 1.171875 -6.1875 1.738281 -7.382812 2.875 -8.15625 C 4.007812 -8.925781 5.722656 -9.351562 8.015625 -9.4375 L 10.671875 -9.515625 L 10.671875 -10.1875 C 10.671875 -11.738281 9.875 -12.515625 8.28125 -12.515625 C 7.0625 -12.515625 5.628906 -12.144531 3.984375 -11.40625 L 2.59375 -14.21875 C 4.351562 -15.132812 6.304688 -15.59375 8.453125 -15.59375 C 10.503906 -15.59375 12.078125 -15.144531 13.171875 -14.25 C 14.265625 -13.363281 14.8125 -12.007812 14.8125 -10.1875 L 14.8125 0 Z M 10.671875 -7.078125 L 9.046875 -7.03125 C 7.835938 -6.988281 6.9375 -6.765625 6.34375 -6.359375 C 5.75 -5.960938 5.453125 -5.359375 5.453125 -4.546875 C 5.453125 -3.367188 6.128906 -2.78125 7.484375 -2.78125 C 8.441406 -2.78125 9.210938 -3.054688 9.796875 -3.609375 C 10.378906 -4.160156 10.671875 -4.898438 10.671875 -5.828125 Z M 10.671875 -7.078125 "/></g></g></g><g fill="#ffffff" fill-opacity="1"><g transform="translate(229.504178, 260.948772)"><g><path d="M 12.859375 -4.546875 C 12.859375 -2.972656 12.3125 -1.773438 11.21875 -0.953125 C 10.125 -0.128906 8.492188 0.28125 6.328125 0.28125 C 5.210938 0.28125 4.265625 0.203125 3.484375 0.046875 C 2.703125 -0.0976562 1.96875 -0.316406 1.28125 -0.609375 L 1.28125 -4.0625 C 2.0625 -3.695312 2.9375 -3.390625 3.90625 -3.140625 C 4.875 -2.898438 5.726562 -2.78125 6.46875 -2.78125 C 7.976562 -2.78125 8.734375 -3.21875 8.734375 -4.09375 C 8.734375 -4.414062 8.632812 -4.679688 8.4375 -4.890625 C 8.238281 -5.097656 7.890625 -5.328125 7.390625 -5.578125 C 6.898438 -5.835938 6.242188 -6.144531 5.421875 -6.5 C 4.253906 -6.988281 3.394531 -7.441406 2.84375 -7.859375 C 2.289062 -8.273438 1.890625 -8.753906 1.640625 -9.296875 C 1.390625 -9.847656 1.265625 -10.519531 1.265625 -11.3125 C 1.265625 -12.664062 1.789062 -13.710938 2.84375 -14.453125 C 3.894531 -15.203125 5.382812 -15.578125 7.3125 -15.578125 C 9.15625 -15.578125 10.945312 -15.175781 12.6875 -14.375 L 11.4375 -11.359375 C 10.664062 -11.691406 9.945312 -11.960938 9.28125 -12.171875 C 8.613281 -12.378906 7.9375 -12.484375 7.25 -12.484375 C 6.019531 -12.484375 5.40625 -12.148438 5.40625 -11.484375 C 5.40625 -11.109375 5.601562 -10.785156 6 -10.515625 C 6.394531 -10.242188 7.257812 -9.835938 8.59375 -9.296875 C 9.789062 -8.816406 10.664062 -8.363281 11.21875 -7.9375 C 11.78125 -7.519531 12.191406 -7.035156 12.453125 -6.484375 C 12.722656 -5.941406 12.859375 -5.296875 12.859375 -4.546875 Z M 12.859375 -4.546875 "/></g></g></g><g fill="#ffffff" fill-opacity="1"><g transform="translate(243.420205, 260.948772)"><g><path d="M 8.625 -3.046875 C 9.351562 -3.046875 10.226562 -3.207031 11.25 -3.53125 L 11.25 -0.421875 C 10.207031 0.046875 8.929688 0.28125 7.421875 0.28125 C 5.753906 0.28125 4.539062 -0.140625 3.78125 -0.984375 C 3.019531 -1.828125 2.640625 -3.09375 2.640625 -4.78125 L 2.640625 -12.15625 L 0.640625 -12.15625 L 0.640625 -13.921875 L 2.9375 -15.3125 L 4.140625 -18.546875 L 6.8125 -18.546875 L 6.8125 -15.28125 L 11.09375 -15.28125 L 11.09375 -12.15625 L 6.8125 -12.15625 L 6.8125 -4.78125 C 6.8125 -4.1875 6.976562 -3.75 7.3125 -3.46875 C 7.644531 -3.1875 8.082031 -3.046875 8.625 -3.046875 Z M 8.625 -3.046875 "/></g></g></g></svg>