<svg xmlns="http://www.w3.org/2000/svg" xmlns:xlink="http://www.w3.org/1999/xlink" width="500" zoomAndPan="magnify" viewBox="0 0 375 374.999991" height="500" preserveAspectRatio="xMidYMid meet" version="1.0"><defs><g/><clipPath id="60308c489a"><path d="M 152.25 167 L 222.75 167 L 222.75 219.257812 L 152.25 219.257812 Z M 152.25 167 " clip-rule="nonzero"/></clipPath><clipPath id="3fe1b361a6"><path d="M 169 155.507812 L 177 155.507812 L 177 166 L 169 166 Z M 169 155.507812 " clip-rule="nonzero"/></clipPath><clipPath id="4a3844a1bf"><path d="M 177 155.507812 L 185 155.507812 L 185 166 L 177 166 Z M 177 155.507812 " clip-rule="nonzero"/></clipPath><clipPath id="14c0cbd449"><path d="M 184 155.507812 L 192 155.507812 L 192 166 L 184 166 Z M 184 155.507812 " clip-rule="nonzero"/></clipPath><clipPath id="95b5fa4f7e"><path d="M 192 155.507812 L 199 155.507812 L 199 166 L 192 166 Z M 192 155.507812 " clip-rule="nonzero"/></clipPath><clipPath id="9896cb4ab5"><path d="M 199 155.507812 L 206 155.507812 L 206 166 L 199 166 Z M 199 155.507812 " clip-rule="nonzero"/></clipPath></defs><g clip-path="url(#60308c489a)"><path fill="#ffffff" d="M 218.078125 217.796875 L 209.488281 217.796875 L 209.488281 193.644531 L 218.078125 193.644531 Z M 165.492188 193.644531 L 165.492188 217.796875 L 156.90625 217.796875 L 156.90625 193.644531 Z M 153.707031 186.921875 L 165.492188 186.921875 L 165.492188 192.21875 L 153.707031 192.21875 Z M 208.0625 177.449219 L 208.0625 217.796875 L 195.820312 217.796875 L 195.820312 213.847656 C 195.820312 209.253906 192.085938 205.519531 187.492188 205.519531 C 182.898438 205.519531 179.160156 209.253906 179.160156 213.847656 L 179.160156 217.796875 L 166.921875 217.796875 L 166.921875 177.449219 Z M 163.816406 169.097656 L 211.167969 169.097656 L 211.167969 176.023438 L 163.816406 176.023438 Z M 194.394531 217.796875 L 180.589844 217.796875 L 180.589844 213.847656 C 180.589844 210.042969 183.683594 206.945312 187.492188 206.945312 C 191.296875 206.945312 194.394531 210.042969 194.394531 213.847656 Z M 221.277344 186.921875 L 221.277344 192.21875 L 209.488281 192.21875 L 209.488281 186.921875 Z M 221.988281 193.644531 C 222.382812 193.644531 222.703125 193.324219 222.703125 192.929688 L 222.703125 186.210938 C 222.703125 185.816406 222.382812 185.496094 221.988281 185.496094 L 209.488281 185.496094 L 209.488281 177.449219 L 211.878906 177.449219 C 212.273438 177.449219 212.59375 177.128906 212.59375 176.734375 L 212.59375 168.386719 C 212.59375 167.992188 212.273438 167.671875 211.878906 167.671875 L 163.101562 167.671875 C 162.707031 167.671875 162.390625 167.992188 162.390625 168.386719 L 162.390625 176.734375 C 162.390625 177.128906 162.707031 177.449219 163.101562 177.449219 L 165.492188 177.449219 L 165.492188 185.496094 L 152.992188 185.496094 C 152.601562 185.496094 152.28125 185.816406 152.28125 186.210938 L 152.28125 192.929688 C 152.28125 193.324219 152.601562 193.644531 152.992188 193.644531 L 155.480469 193.644531 L 155.480469 218.046875 L 153.082031 218.046875 C 152.6875 218.046875 152.371094 218.367188 152.371094 218.761719 C 152.371094 219.15625 152.6875 219.472656 153.082031 219.472656 L 221.988281 219.472656 C 222.382812 219.472656 222.703125 219.15625 222.703125 218.761719 C 222.703125 218.367188 222.382812 218.046875 221.988281 218.046875 L 219.503906 218.046875 L 219.503906 193.644531 L 221.988281 193.644531 " fill-opacity="1" fill-rule="nonzero"/></g><g clip-path="url(#3fe1b361a6)"><path fill="#ffffff" d="M 170.558594 165.652344 C 170.953125 165.652344 171.273438 165.332031 171.273438 164.9375 L 171.273438 161.289062 L 174.703125 161.289062 L 174.703125 164.9375 C 174.703125 165.332031 175.023438 165.652344 175.414062 165.652344 C 175.808594 165.652344 176.128906 165.332031 176.128906 164.9375 L 176.128906 156.214844 C 176.128906 155.820312 175.808594 155.503906 175.414062 155.503906 C 175.023438 155.503906 174.703125 155.820312 174.703125 156.214844 L 174.703125 159.863281 L 171.273438 159.863281 L 171.273438 156.214844 C 171.273438 155.820312 170.953125 155.503906 170.558594 155.503906 C 170.164062 155.503906 169.84375 155.820312 169.84375 156.214844 L 169.84375 164.9375 C 169.84375 165.332031 170.164062 165.652344 170.558594 165.652344 " fill-opacity="1" fill-rule="nonzero"/></g><g clip-path="url(#4a3844a1bf)"><path fill="#ffffff" d="M 180.984375 156.929688 C 182.132812 156.929688 183.101562 158.597656 183.101562 160.578125 C 183.101562 162.554688 182.132812 164.226562 180.984375 164.226562 C 179.835938 164.226562 178.867188 162.554688 178.867188 160.578125 C 178.867188 158.597656 179.835938 156.929688 180.984375 156.929688 Z M 180.984375 165.652344 C 182.972656 165.652344 184.527344 163.421875 184.527344 160.578125 C 184.527344 157.730469 182.972656 155.503906 180.984375 155.503906 C 178.996094 155.503906 177.4375 157.730469 177.4375 160.578125 C 177.4375 163.421875 178.996094 165.652344 180.984375 165.652344 " fill-opacity="1" fill-rule="nonzero"/></g><g clip-path="url(#14c0cbd449)"><path fill="#ffffff" d="M 185.230469 156.929688 L 187.253906 156.929688 L 187.253906 164.9375 C 187.253906 165.332031 187.574219 165.652344 187.96875 165.652344 C 188.359375 165.652344 188.679688 165.332031 188.679688 164.9375 L 188.679688 156.929688 L 190.703125 156.929688 C 191.097656 156.929688 191.417969 156.609375 191.417969 156.214844 C 191.417969 155.820312 191.097656 155.503906 190.703125 155.503906 L 185.230469 155.503906 C 184.835938 155.503906 184.515625 155.820312 184.515625 156.214844 C 184.515625 156.609375 184.835938 156.929688 185.230469 156.929688 " fill-opacity="1" fill-rule="nonzero"/></g><g clip-path="url(#95b5fa4f7e)"><path fill="#ffffff" d="M 192.96875 165.652344 L 197.527344 165.652344 C 197.921875 165.652344 198.242188 165.332031 198.242188 164.9375 C 198.242188 164.542969 197.921875 164.226562 197.527344 164.226562 L 193.683594 164.226562 L 193.683594 161.289062 L 195.566406 161.289062 C 195.957031 161.289062 196.277344 160.972656 196.277344 160.578125 C 196.277344 160.183594 195.957031 159.863281 195.566406 159.863281 L 193.683594 159.863281 L 193.683594 156.929688 L 197.527344 156.929688 C 197.921875 156.929688 198.242188 156.609375 198.242188 156.214844 C 198.242188 155.820312 197.921875 155.503906 197.527344 155.503906 L 192.96875 155.503906 C 192.574219 155.503906 192.253906 155.820312 192.253906 156.214844 L 192.253906 164.9375 C 192.253906 165.332031 192.574219 165.652344 192.96875 165.652344 " fill-opacity="1" fill-rule="nonzero"/></g><g clip-path="url(#9896cb4ab5)"><path fill="#ffffff" d="M 199.988281 165.652344 L 204.425781 165.652344 C 204.816406 165.652344 205.136719 165.332031 205.136719 164.9375 C 205.136719 164.542969 204.816406 164.226562 204.425781 164.226562 L 200.703125 164.226562 L 200.703125 156.214844 C 200.703125 155.820312 200.382812 155.503906 199.988281 155.503906 C 199.59375 155.503906 199.273438 155.820312 199.273438 156.214844 L 199.273438 164.9375 C 199.273438 165.332031 199.59375 165.652344 199.988281 165.652344 " fill-opacity="1" fill-rule="nonzero"/></g><path fill="#ffffff" d="M 172.484375 181.335938 L 178.390625 181.335938 L 178.390625 184.492188 L 172.484375 184.492188 Z M 171.773438 185.917969 L 179.101562 185.917969 C 179.496094 185.917969 179.816406 185.597656 179.816406 185.203125 L 179.816406 180.621094 C 179.816406 180.226562 179.496094 179.90625 179.101562 179.90625 L 171.773438 179.90625 C 171.378906 179.90625 171.058594 180.226562 171.058594 180.621094 L 171.058594 185.203125 C 171.058594 185.597656 171.378906 185.917969 171.773438 185.917969 " fill-opacity="1" fill-rule="nonzero"/><path fill="#ffffff" d="M 184.539062 181.335938 L 190.441406 181.335938 L 190.441406 184.492188 L 184.539062 184.492188 Z M 183.824219 185.917969 L 191.15625 185.917969 C 191.550781 185.917969 191.871094 185.597656 191.871094 185.203125 L 191.871094 180.621094 C 191.871094 180.226562 191.550781 179.90625 191.15625 179.90625 L 183.824219 179.90625 C 183.433594 179.90625 183.113281 180.226562 183.113281 180.621094 L 183.113281 185.203125 C 183.113281 185.597656 183.433594 185.917969 183.824219 185.917969 " fill-opacity="1" fill-rule="nonzero"/><path fill="#ffffff" d="M 196.59375 181.335938 L 202.496094 181.335938 L 202.496094 184.492188 L 196.59375 184.492188 Z M 195.878906 185.917969 L 203.210938 185.917969 C 203.605469 185.917969 203.925781 185.597656 203.925781 185.203125 L 203.925781 180.621094 C 203.925781 180.226562 203.605469 179.90625 203.210938 179.90625 L 195.878906 179.90625 C 195.484375 179.90625 195.167969 180.226562 195.167969 180.621094 L 195.167969 185.203125 C 195.167969 185.597656 195.484375 185.917969 195.878906 185.917969 " fill-opacity="1" fill-rule="nonzero"/><path fill="#ffffff" d="M 172.484375 189.988281 L 178.390625 189.988281 L 178.390625 193.144531 L 172.484375 193.144531 Z M 171.773438 194.570312 L 179.101562 194.570312 C 179.496094 194.570312 179.816406 194.25 179.816406 193.859375 L 179.816406 189.273438 C 179.816406 188.878906 179.496094 188.5625 179.101562 188.5625 L 171.773438 188.5625 C 171.378906 188.5625 171.058594 188.878906 171.058594 189.273438 L 171.058594 193.859375 C 171.058594 194.25 171.378906 194.570312 171.773438 194.570312 " fill-opacity="1" fill-rule="nonzero"/><path fill="#ffffff" d="M 184.539062 189.988281 L 190.441406 189.988281 L 190.441406 193.144531 L 184.539062 193.144531 Z M 183.824219 194.570312 L 191.15625 194.570312 C 191.550781 194.570312 191.871094 194.25 191.871094 193.859375 L 191.871094 189.273438 C 191.871094 188.878906 191.550781 188.5625 191.15625 188.5625 L 183.824219 188.5625 C 183.433594 188.5625 183.113281 188.878906 183.113281 189.273438 L 183.113281 193.859375 C 183.113281 194.25 183.433594 194.570312 183.824219 194.570312 " fill-opacity="1" fill-rule="nonzero"/><path fill="#ffffff" d="M 196.59375 189.988281 L 202.496094 189.988281 L 202.496094 193.144531 L 196.59375 193.144531 Z M 195.878906 194.570312 L 203.210938 194.570312 C 203.605469 194.570312 203.925781 194.25 203.925781 193.859375 L 203.925781 189.273438 C 203.925781 188.878906 203.605469 188.5625 203.210938 188.5625 L 195.878906 188.5625 C 195.484375 188.5625 195.167969 188.878906 195.167969 189.273438 L 195.167969 193.859375 C 195.167969 194.25 195.484375 194.570312 195.878906 194.570312 " fill-opacity="1" fill-rule="nonzero"/><path fill="#ffffff" d="M 172.484375 198.640625 L 178.390625 198.640625 L 178.390625 201.796875 L 172.484375 201.796875 Z M 171.773438 203.222656 L 179.101562 203.222656 C 179.496094 203.222656 179.816406 202.90625 179.816406 202.511719 L 179.816406 197.925781 C 179.816406 197.53125 179.496094 197.214844 179.101562 197.214844 L 171.773438 197.214844 C 171.378906 197.214844 171.058594 197.53125 171.058594 197.925781 L 171.058594 202.511719 C 171.058594 202.90625 171.378906 203.222656 171.773438 203.222656 " fill-opacity="1" fill-rule="nonzero"/><path fill="#ffffff" d="M 184.539062 198.640625 L 190.441406 198.640625 L 190.441406 201.796875 L 184.539062 201.796875 Z M 183.824219 203.222656 L 191.15625 203.222656 C 191.550781 203.222656 191.871094 202.90625 191.871094 202.511719 L 191.871094 197.925781 C 191.871094 197.53125 191.550781 197.214844 191.15625 197.214844 L 183.824219 197.214844 C 183.433594 197.214844 183.113281 197.53125 183.113281 197.925781 L 183.113281 202.511719 C 183.113281 202.90625 183.433594 203.222656 183.824219 203.222656 " fill-opacity="1" fill-rule="nonzero"/><path fill="#ffffff" d="M 196.59375 198.640625 L 202.496094 198.640625 L 202.496094 201.796875 L 196.59375 201.796875 Z M 195.878906 203.222656 L 203.210938 203.222656 C 203.605469 203.222656 203.925781 202.90625 203.925781 202.511719 L 203.925781 197.925781 C 203.925781 197.53125 203.605469 197.214844 203.210938 197.214844 L 195.878906 197.214844 C 195.484375 197.214844 195.167969 197.53125 195.167969 197.925781 L 195.167969 202.511719 C 195.167969 202.90625 195.484375 203.222656 195.878906 203.222656 " fill-opacity="1" fill-rule="nonzero"/><g fill="#ffffff" fill-opacity="1"><g transform="translate(149.501947, 268.946466)"><g><path d="M 18.890625 0 L 14.671875 0 L 14.671875 -8.625 L 6.75 -8.625 L 6.75 0 L 2.515625 0 L 2.515625 -19.984375 L 6.75 -19.984375 L 6.75 -12.15625 L 14.671875 -12.15625 L 14.671875 -19.984375 L 18.890625 -19.984375 Z M 18.890625 0 "/></g></g></g><g fill="#ffffff" fill-opacity="1"><g transform="translate(170.922791, 268.946466)"><g><path d="M 5.515625 -7.671875 C 5.515625 -6.160156 5.757812 -5.015625 6.25 -4.234375 C 6.75 -3.460938 7.5625 -3.078125 8.6875 -3.078125 C 9.789062 -3.078125 10.585938 -3.460938 11.078125 -4.234375 C 11.566406 -5.003906 11.8125 -6.148438 11.8125 -7.671875 C 11.8125 -9.179688 11.566406 -10.3125 11.078125 -11.0625 C 10.585938 -11.820312 9.78125 -12.203125 8.65625 -12.203125 C 7.539062 -12.203125 6.738281 -11.828125 6.25 -11.078125 C 5.757812 -10.328125 5.515625 -9.191406 5.515625 -7.671875 Z M 16.078125 -7.671875 C 16.078125 -5.179688 15.421875 -3.234375 14.109375 -1.828125 C 12.796875 -0.421875 10.96875 0.28125 8.625 0.28125 C 7.15625 0.28125 5.859375 -0.0390625 4.734375 -0.6875 C 3.617188 -1.332031 2.757812 -2.253906 2.15625 -3.453125 C 1.5625 -4.660156 1.265625 -6.066406 1.265625 -7.671875 C 1.265625 -10.171875 1.914062 -12.113281 3.21875 -13.5 C 4.519531 -14.882812 6.347656 -15.578125 8.703125 -15.578125 C 10.171875 -15.578125 11.46875 -15.253906 12.59375 -14.609375 C 13.71875 -13.972656 14.578125 -13.054688 15.171875 -11.859375 C 15.773438 -10.671875 16.078125 -9.273438 16.078125 -7.671875 Z M 16.078125 -7.671875 "/></g></g></g><g fill="#ffffff" fill-opacity="1"><g transform="translate(188.256309, 268.946466)"><g><path d="M 8.625 -3.046875 C 9.351562 -3.046875 10.226562 -3.207031 11.25 -3.53125 L 11.25 -0.421875 C 10.207031 0.046875 8.929688 0.28125 7.421875 0.28125 C 5.753906 0.28125 4.539062 -0.140625 3.78125 -0.984375 C 3.019531 -1.828125 2.640625 -3.09375 2.640625 -4.78125 L 2.640625 -12.15625 L 0.640625 -12.15625 L 0.640625 -13.921875 L 2.9375 -15.3125 L 4.140625 -18.546875 L 6.8125 -18.546875 L 6.8125 -15.28125 L 11.09375 -15.28125 L 11.09375 -12.15625 L 6.8125 -12.15625 L 6.8125 -4.78125 C 6.8125 -4.1875 6.976562 -3.75 7.3125 -3.46875 C 7.644531 -3.1875 8.082031 -3.046875 8.625 -3.046875 Z M 8.625 -3.046875 "/></g></g></g><g fill="#ffffff" fill-opacity="1"><g transform="translate(200.408915, 268.946466)"><g><path d="M 8.515625 -12.609375 C 7.628906 -12.609375 6.9375 -12.328125 6.4375 -11.765625 C 5.9375 -11.203125 5.648438 -10.40625 5.578125 -9.375 L 11.4375 -9.375 C 11.414062 -10.40625 11.144531 -11.203125 10.625 -11.765625 C 10.101562 -12.328125 9.398438 -12.609375 8.515625 -12.609375 Z M 9.109375 0.28125 C 6.648438 0.28125 4.726562 -0.394531 3.34375 -1.75 C 1.957031 -3.113281 1.265625 -5.039062 1.265625 -7.53125 C 1.265625 -10.09375 1.898438 -12.070312 3.171875 -13.46875 C 4.453125 -14.875 6.222656 -15.578125 8.484375 -15.578125 C 10.648438 -15.578125 12.332031 -14.957031 13.53125 -13.71875 C 14.738281 -12.488281 15.34375 -10.789062 15.34375 -8.625 L 15.34375 -6.609375 L 5.484375 -6.609375 C 5.523438 -5.421875 5.875 -4.492188 6.53125 -3.828125 C 7.1875 -3.160156 8.109375 -2.828125 9.296875 -2.828125 C 10.210938 -2.828125 11.082031 -2.921875 11.90625 -3.109375 C 12.726562 -3.304688 13.585938 -3.613281 14.484375 -4.03125 L 14.484375 -0.8125 C 13.753906 -0.445312 12.972656 -0.175781 12.140625 0 C 11.304688 0.1875 10.296875 0.28125 9.109375 0.28125 Z M 9.109375 0.28125 "/></g></g></g><g fill="#ffffff" fill-opacity="1"><g transform="translate(216.949574, 268.946466)"><g><path d="M 6.359375 0 L 2.1875 0 L 2.1875 -21.28125 L 6.359375 -21.28125 Z M 6.359375 0 "/></g></g></g></svg>