<svg xmlns="http://www.w3.org/2000/svg" xmlns:xlink="http://www.w3.org/1999/xlink" width="500" zoomAndPan="magnify" viewBox="0 0 375 374.999991" height="500" preserveAspectRatio="xMidYMid meet" version="1.0"><defs><g/><clipPath id="fce3a75d02"><path d="M 154.132812 160 L 220.882812 160 L 220.882812 214.722656 L 154.132812 214.722656 Z M 154.132812 160 " clip-rule="nonzero"/></clipPath></defs><g clip-path="url(#fce3a75d02)"><path fill="#ffffff" d="M 217.5 200.273438 C 217.105469 201.234375 216.546875 202.253906 215.855469 203.273438 L 213.800781 201.21875 C 213.734375 201.152344 213.667969 201.089844 213.597656 201.035156 C 212.242188 199.941406 209.984375 200.351562 208.339844 201.996094 C 207.984375 202.355469 207.679688 202.746094 207.4375 203.160156 C 207.386719 203.242188 207.339844 203.324219 207.296875 203.40625 C 206.566406 204.800781 206.59375 206.265625 207.367188 207.238281 C 207.394531 207.273438 207.425781 207.308594 207.457031 207.339844 C 207.488281 207.378906 207.523438 207.417969 207.5625 207.453125 L 209.617188 209.511719 C 208.941406 209.96875 208.265625 210.371094 207.597656 210.707031 C 205.613281 211.707031 203.851562 212.054688 202.769531 211.65625 C 202.535156 211.570312 202.332031 211.445312 202.175781 211.285156 L 202.171875 211.285156 C 202.007812 211.117188 201.878906 210.914062 201.792969 210.660156 C 201.425781 209.621094 201.738281 207.945312 202.652344 206.0625 C 203.570312 204.167969 204.996094 202.222656 206.78125 200.4375 C 207.480469 199.738281 208.210938 199.089844 208.957031 198.5 C 211.074219 196.835938 213.304688 195.699219 215.082031 195.386719 C 215.847656 195.253906 216.511719 195.273438 217.007812 195.449219 C 217.257812 195.535156 217.460938 195.660156 217.628906 195.832031 C 218.378906 196.578125 218.332031 198.242188 217.5 200.273438 Z M 216.253906 207.46875 C 216.152344 207.984375 215.824219 208.550781 215.359375 209.015625 C 214.894531 209.480469 214.328125 209.808594 213.8125 209.910156 C 213.460938 209.980469 213.164062 209.9375 213.019531 209.796875 C 212.703125 209.476562 212.847656 208.40625 213.800781 207.457031 C 214.460938 206.796875 215.175781 206.523438 215.65625 206.523438 C 215.871094 206.523438 216.042969 206.578125 216.140625 206.675781 C 216.28125 206.820312 216.324219 207.117188 216.253906 207.46875 Z M 209.125 205.898438 C 209.117188 205.890625 209.109375 205.882812 209.101562 205.875 C 209.101562 205.871094 209.097656 205.867188 209.09375 205.863281 C 208.921875 205.648438 208.894531 205.109375 209.253906 204.425781 C 209.277344 204.382812 209.300781 204.339844 209.332031 204.289062 C 209.484375 204.027344 209.675781 203.78125 209.902344 203.554688 C 210.820312 202.640625 211.863281 202.46875 212.210938 202.75 C 212.214844 202.753906 212.214844 202.757812 212.21875 202.757812 C 212.226562 202.765625 212.234375 202.769531 212.238281 202.777344 L 214.105469 204.640625 C 213.453125 204.902344 212.8125 205.324219 212.242188 205.898438 C 211.667969 206.46875 211.246094 207.109375 210.984375 207.761719 Z M 198.324219 210.550781 C 196.539062 210.867188 195.121094 210.609375 194.304688 209.796875 L 194.300781 209.789062 C 193.183594 208.667969 193.121094 206.4375 194.128906 203.667969 C 195.253906 200.574219 197.53125 197.210938 200.542969 194.199219 C 203.558594 191.1875 206.917969 188.90625 210.011719 187.785156 C 211.320312 187.308594 212.507812 187.070312 213.515625 187.070312 C 214.640625 187.070312 215.542969 187.367188 216.136719 187.957031 L 216.140625 187.960938 C 216.964844 188.789062 217.222656 190.1875 216.898438 191.984375 L 216.070312 191.152344 C 214.703125 189.789062 212.425781 189.601562 209.65625 190.632812 C 207.167969 191.554688 204.484375 193.375 202.101562 195.757812 C 199.722656 198.140625 197.898438 200.824219 196.976562 203.3125 C 195.945312 206.082031 196.132812 208.359375 197.496094 209.726562 Z M 191.007812 200.546875 C 192.132812 197.457031 194.414062 194.09375 197.425781 191.082031 C 200.4375 188.066406 203.800781 185.789062 206.890625 184.664062 C 209.664062 183.65625 211.898438 183.71875 213.019531 184.84375 L 213.054688 184.875 C 211.902344 184.9375 210.625 185.214844 209.257812 185.710938 C 205.867188 186.945312 202.21875 189.402344 198.984375 192.640625 C 195.75 195.875 193.289062 199.523438 192.054688 202.914062 C 191.558594 204.28125 191.28125 205.554688 191.21875 206.710938 L 191.1875 206.675781 C 190.066406 205.554688 190 203.320312 191.007812 200.546875 Z M 174.089844 195.175781 L 191.269531 195.175781 C 190.324219 196.65625 189.558594 198.144531 189.015625 199.585938 L 174.089844 199.585938 Z M 171.882812 210.617188 C 171.882812 211.832031 170.894531 212.820312 169.679688 212.820312 C 168.464844 212.820312 167.472656 211.832031 167.472656 210.617188 L 167.472656 184.148438 C 167.472656 182.933594 168.464844 181.945312 169.679688 181.945312 C 170.894531 181.945312 171.882812 182.933594 171.882812 184.148438 Z M 163.0625 205.101562 C 161.847656 205.101562 160.855469 204.113281 160.855469 202.894531 L 160.855469 191.867188 C 160.855469 190.652344 161.847656 189.664062 163.0625 189.664062 C 164.277344 189.664062 165.269531 190.652344 165.269531 191.867188 L 165.269531 202.894531 C 165.269531 204.113281 164.277344 205.101562 163.0625 205.101562 Z M 169.414062 174.449219 C 170.230469 172.253906 171.871094 169.851562 174.03125 167.6875 C 176.195312 165.527344 178.597656 163.886719 180.792969 163.070312 C 182.414062 162.46875 183.777344 162.394531 184.566406 162.84375 C 181.558594 164.1875 178.417969 166.421875 175.589844 169.246094 C 172.773438 172.066406 170.53125 175.230469 169.191406 178.226562 C 168.738281 177.4375 168.8125 176.070312 169.414062 174.449219 Z M 170.914062 167.6875 C 170.769531 167.542969 170.726562 167.25 170.796875 166.898438 C 170.902344 166.378906 171.226562 165.816406 171.691406 165.347656 C 172.160156 164.882812 172.722656 164.554688 173.242188 164.453125 C 173.59375 164.382812 173.890625 164.425781 174.03125 164.570312 L 174.097656 164.632812 C 173.542969 165.101562 173 165.601562 172.472656 166.128906 C 171.945312 166.65625 171.445312 167.199219 170.976562 167.75 Z M 192.746094 164.566406 L 192.78125 164.601562 C 191.625 164.664062 190.351562 164.941406 188.984375 165.4375 C 185.59375 166.671875 181.949219 169.132812 178.710938 172.367188 C 176.046875 175.03125 173.914062 177.96875 172.554688 180.808594 C 172.074219 180.394531 171.503906 180.082031 170.875 179.902344 C 172.03125 176.945312 174.261719 173.695312 177.152344 170.808594 C 180.164062 167.792969 183.527344 165.515625 186.617188 164.390625 C 189.390625 163.382812 191.625 163.445312 192.746094 164.566406 Z M 192.542969 179.960938 L 188.847656 176.265625 C 188.171875 175.589844 187.15625 175.328125 186.0625 175.546875 C 185.117188 175.734375 184.167969 176.265625 183.390625 177.042969 C 182.613281 177.820312 182.078125 178.769531 181.890625 179.71875 C 181.671875 180.8125 181.933594 181.828125 182.609375 182.503906 L 186.304688 186.199219 C 181.25 190.0625 176.144531 191.507812 174.089844 189.574219 L 174.089844 184.148438 C 174.089844 183.789062 174.046875 183.441406 173.964844 183.105469 C 175.121094 180.097656 177.347656 176.851562 180.269531 173.925781 C 183.28125 170.914062 186.644531 168.632812 189.738281 167.507812 C 192.511719 166.5 194.746094 166.566406 195.867188 167.6875 C 197.878906 169.703125 196.445312 174.859375 192.542969 179.960938 Z M 194.355469 191.128906 L 184.167969 180.945312 C 184.027344 180.800781 183.984375 180.503906 184.054688 180.152344 C 184.15625 179.632812 184.480469 179.070312 184.949219 178.601562 C 185.414062 178.136719 185.980469 177.8125 186.496094 177.707031 C 186.847656 177.636719 187.144531 177.679688 187.289062 177.824219 L 197.472656 188.007812 C 196.929688 188.492188 196.390625 188.996094 195.867188 189.519531 C 195.339844 190.046875 194.835938 190.582031 194.355469 191.128906 Z M 174.089844 192.144531 C 174.84375 192.453125 175.707031 192.605469 176.648438 192.605469 C 179.792969 192.605469 183.839844 190.917969 187.878906 187.769531 L 192.9375 192.828125 C 192.898438 192.875 192.867188 192.921875 192.828125 192.96875 L 174.089844 192.96875 Z M 202.761719 184.148438 C 202.761719 183.558594 202.992188 183.007812 203.40625 182.589844 C 203.824219 182.171875 204.378906 181.941406 204.96875 181.941406 C 205.519531 181.941406 206.03125 182.144531 206.425781 182.492188 C 206.328125 182.523438 206.234375 182.554688 206.136719 182.59375 C 205.03125 182.992188 203.898438 183.527344 202.761719 184.175781 Z M 200.863281 204.703125 C 200.535156 205.339844 200.242188 205.996094 200.007812 206.671875 C 199.800781 207.261719 199.515625 207.992188 199.515625 208.621094 L 199.054688 208.164062 C 198.359375 207.464844 198.351562 205.9375 199.042969 204.078125 C 199.859375 201.878906 201.5 199.480469 203.664062 197.316406 C 205.824219 195.15625 208.226562 193.515625 210.425781 192.699219 C 212.285156 192.007812 213.8125 192.011719 214.511719 192.710938 L 214.972656 193.171875 C 214.882812 193.1875 214.792969 193.199219 214.699219 193.214844 C 212.542969 193.59375 210.019531 194.855469 207.59375 196.769531 C 206.78125 197.40625 205.980469 198.117188 205.222656 198.878906 C 203.386719 200.710938 201.886719 202.71875 200.863281 204.703125 Z M 156.445312 199.585938 L 156.445312 195.175781 L 158.652344 195.175781 L 158.652344 199.585938 Z M 219.1875 194.269531 L 218.726562 193.808594 C 219.65625 190.621094 219.296875 188 217.699219 186.402344 C 217.695312 186.398438 217.691406 186.394531 217.6875 186.386719 L 214.578125 183.28125 C 213.246094 181.949219 211.226562 181.476562 208.753906 181.886719 C 207.972656 180.570312 206.550781 179.738281 204.96875 179.738281 C 203.792969 179.738281 202.683594 180.195312 201.847656 181.03125 C 201.015625 181.863281 200.554688 182.972656 200.554688 184.148438 L 200.554688 185.574219 C 200.09375 185.898438 199.632812 186.234375 199.175781 186.59375 L 194.113281 181.53125 C 198.972656 175.300781 200.347656 169.050781 197.425781 166.128906 L 194.304688 163.007812 C 192.699219 161.398438 190.09375 161.046875 186.898438 161.980469 L 186.4375 161.519531 C 185.074219 160.15625 182.796875 159.972656 180.027344 161 C 178.664062 161.507812 177.246094 162.28125 175.851562 163.265625 L 175.589844 163.007812 C 174.914062 162.332031 173.902344 162.070312 172.808594 162.289062 C 171.859375 162.480469 170.910156 163.011719 170.132812 163.789062 C 169.355469 164.566406 168.824219 165.515625 168.632812 166.464844 C 168.414062 167.554688 168.675781 168.570312 169.355469 169.246094 L 169.613281 169.503906 C 168.625 170.902344 167.851562 172.320312 167.34375 173.679688 C 166.316406 176.453125 166.5 178.730469 167.863281 180.09375 L 167.890625 180.117188 C 166.347656 180.804688 165.269531 182.351562 165.269531 184.148438 L 165.269531 188.050781 C 164.617188 187.671875 163.867188 187.457031 163.0625 187.457031 C 160.628906 187.457031 158.652344 189.4375 158.652344 191.867188 L 158.652344 192.96875 L 155.34375 192.96875 C 154.734375 192.96875 154.242188 193.464844 154.242188 194.074219 L 154.242188 200.691406 C 154.242188 201.300781 154.734375 201.792969 155.34375 201.792969 L 158.652344 201.792969 L 158.652344 202.894531 C 158.652344 205.328125 160.628906 207.304688 163.0625 207.304688 C 163.867188 207.304688 164.617188 207.089844 165.269531 206.714844 L 165.269531 210.613281 C 165.269531 213.046875 167.246094 215.027344 169.679688 215.027344 C 172.109375 215.027344 174.089844 213.046875 174.089844 210.613281 L 174.089844 201.792969 L 188.351562 201.792969 C 187.75 204.546875 188.183594 206.792969 189.625 208.234375 L 192.734375 211.339844 C 192.738281 211.34375 192.742188 211.351562 192.746094 211.355469 C 193.765625 212.375 195.195312 212.890625 196.921875 212.890625 C 197.910156 212.890625 198.992188 212.71875 200.152344 212.382812 L 200.613281 212.84375 L 200.617188 212.84375 C 201 213.230469 201.472656 213.527344 202.011719 213.726562 C 202.539062 213.921875 203.132812 214.015625 203.777344 214.015625 C 205.179688 214.015625 206.832031 213.5625 208.589844 212.675781 C 209.457031 212.238281 210.332031 211.710938 211.203125 211.09375 L 211.460938 211.355469 L 211.460938 211.351562 C 211.980469 211.875 212.699219 212.148438 213.503906 212.148438 C 213.742188 212.148438 213.992188 212.125 214.242188 212.074219 C 215.191406 211.882812 216.140625 211.351562 216.917969 210.574219 C 217.695312 209.796875 218.226562 208.847656 218.417969 207.898438 C 218.636719 206.804688 218.375 205.792969 217.699219 205.117188 L 217.699219 205.113281 L 217.4375 204.855469 C 218.324219 203.597656 219.046875 202.316406 219.539062 201.109375 C 220.753906 198.140625 220.628906 195.710938 219.1875 194.269531 " fill-opacity="1" fill-rule="nonzero"/></g><g fill="#ffffff" fill-opacity="1"><g transform="translate(138.079097, 263.61467)"><g><path d="M 6.6875 0 L 2.515625 0 L 2.515625 -19.984375 L 13.96875 -19.984375 L 13.96875 -16.515625 L 6.6875 -16.515625 L 6.6875 -11.359375 L 13.46875 -11.359375 L 13.46875 -7.90625 L 6.6875 -7.90625 Z M 6.6875 0 "/></g></g></g><g fill="#ffffff" fill-opacity="1"><g transform="translate(153.44414, 263.61467)"><g><path d="M 2.015625 -19.234375 C 2.015625 -20.597656 2.769531 -21.28125 4.28125 -21.28125 C 5.789062 -21.28125 6.546875 -20.597656 6.546875 -19.234375 C 6.546875 -18.585938 6.359375 -18.082031 5.984375 -17.71875 C 5.609375 -17.363281 5.039062 -17.1875 4.28125 -17.1875 C 2.769531 -17.1875 2.015625 -17.867188 2.015625 -19.234375 Z M 6.359375 0 L 2.1875 0 L 2.1875 -15.28125 L 6.359375 -15.28125 Z M 6.359375 0 "/></g></g></g><g fill="#ffffff" fill-opacity="1"><g transform="translate(161.987875, 263.61467)"><g><path d="M 8.625 -3.046875 C 9.351562 -3.046875 10.226562 -3.207031 11.25 -3.53125 L 11.25 -0.421875 C 10.207031 0.046875 8.929688 0.28125 7.421875 0.28125 C 5.753906 0.28125 4.539062 -0.140625 3.78125 -0.984375 C 3.019531 -1.828125 2.640625 -3.09375 2.640625 -4.78125 L 2.640625 -12.15625 L 0.640625 -12.15625 L 0.640625 -13.921875 L 2.9375 -15.3125 L 4.140625 -18.546875 L 6.8125 -18.546875 L 6.8125 -15.28125 L 11.09375 -15.28125 L 11.09375 -12.15625 L 6.8125 -12.15625 L 6.8125 -4.78125 C 6.8125 -4.1875 6.976562 -3.75 7.3125 -3.46875 C 7.644531 -3.1875 8.082031 -3.046875 8.625 -3.046875 Z M 8.625 -3.046875 "/></g></g></g><g fill="#ffffff" fill-opacity="1"><g transform="translate(174.140481, 263.61467)"><g><path d="M 16.296875 0 L 12.125 0 L 12.125 -8.921875 C 12.125 -10.023438 11.925781 -10.851562 11.53125 -11.40625 C 11.144531 -11.957031 10.523438 -12.234375 9.671875 -12.234375 C 8.503906 -12.234375 7.660156 -11.84375 7.140625 -11.0625 C 6.617188 -10.289062 6.359375 -9 6.359375 -7.1875 L 6.359375 0 L 2.1875 0 L 2.1875 -15.28125 L 5.375 -15.28125 L 5.9375 -13.328125 L 6.171875 -13.328125 C 6.628906 -14.066406 7.265625 -14.625 8.078125 -15 C 8.898438 -15.382812 9.832031 -15.578125 10.875 -15.578125 C 12.644531 -15.578125 13.988281 -15.09375 14.90625 -14.125 C 15.832031 -13.164062 16.296875 -11.78125 16.296875 -9.96875 Z M 16.296875 0 "/></g></g></g><g fill="#ffffff" fill-opacity="1"><g transform="translate(192.540256, 263.61467)"><g><path d="M 8.515625 -12.609375 C 7.628906 -12.609375 6.9375 -12.328125 6.4375 -11.765625 C 5.9375 -11.203125 5.648438 -10.40625 5.578125 -9.375 L 11.4375 -9.375 C 11.414062 -10.40625 11.144531 -11.203125 10.625 -11.765625 C 10.101562 -12.328125 9.398438 -12.609375 8.515625 -12.609375 Z M 9.109375 0.28125 C 6.648438 0.28125 4.726562 -0.394531 3.34375 -1.75 C 1.957031 -3.113281 1.265625 -5.039062 1.265625 -7.53125 C 1.265625 -10.09375 1.898438 -12.070312 3.171875 -13.46875 C 4.453125 -14.875 6.222656 -15.578125 8.484375 -15.578125 C 10.648438 -15.578125 12.332031 -14.957031 13.53125 -13.71875 C 14.738281 -12.488281 15.34375 -10.789062 15.34375 -8.625 L 15.34375 -6.609375 L 5.484375 -6.609375 C 5.523438 -5.421875 5.875 -4.492188 6.53125 -3.828125 C 7.1875 -3.160156 8.109375 -2.828125 9.296875 -2.828125 C 10.210938 -2.828125 11.082031 -2.921875 11.90625 -3.109375 C 12.726562 -3.304688 13.585938 -3.613281 14.484375 -4.03125 L 14.484375 -0.8125 C 13.753906 -0.445312 12.972656 -0.175781 12.140625 0 C 11.304688 0.1875 10.296875 0.28125 9.109375 0.28125 Z M 9.109375 0.28125 "/></g></g></g><g fill="#ffffff" fill-opacity="1"><g transform="translate(209.080915, 263.61467)"><g><path d="M 12.859375 -4.546875 C 12.859375 -2.972656 12.3125 -1.773438 11.21875 -0.953125 C 10.125 -0.128906 8.492188 0.28125 6.328125 0.28125 C 5.210938 0.28125 4.265625 0.203125 3.484375 0.046875 C 2.703125 -0.0976562 1.96875 -0.316406 1.28125 -0.609375 L 1.28125 -4.0625 C 2.0625 -3.695312 2.9375 -3.390625 3.90625 -3.140625 C 4.875 -2.898438 5.726562 -2.78125 6.46875 -2.78125 C 7.976562 -2.78125 8.734375 -3.21875 8.734375 -4.09375 C 8.734375 -4.414062 8.632812 -4.679688 8.4375 -4.890625 C 8.238281 -5.097656 7.890625 -5.328125 7.390625 -5.578125 C 6.898438 -5.835938 6.242188 -6.144531 5.421875 -6.5 C 4.253906 -6.988281 3.394531 -7.441406 2.84375 -7.859375 C 2.289062 -8.273438 1.890625 -8.753906 1.640625 -9.296875 C 1.390625 -9.847656 1.265625 -10.519531 1.265625 -11.3125 C 1.265625 -12.664062 1.789062 -13.710938 2.84375 -14.453125 C 3.894531 -15.203125 5.382812 -15.578125 7.3125 -15.578125 C 9.15625 -15.578125 10.945312 -15.175781 12.6875 -14.375 L 11.4375 -11.359375 C 10.664062 -11.691406 9.945312 -11.960938 9.28125 -12.171875 C 8.613281 -12.378906 7.9375 -12.484375 7.25 -12.484375 C 6.019531 -12.484375 5.40625 -12.148438 5.40625 -11.484375 C 5.40625 -11.109375 5.601562 -10.785156 6 -10.515625 C 6.394531 -10.242188 7.257812 -9.835938 8.59375 -9.296875 C 9.789062 -8.816406 10.664062 -8.363281 11.21875 -7.9375 C 11.78125 -7.519531 12.191406 -7.035156 12.453125 -6.484375 C 12.722656 -5.941406 12.859375 -5.296875 12.859375 -4.546875 Z M 12.859375 -4.546875 "/></g></g></g><g fill="#ffffff" fill-opacity="1"><g transform="translate(222.996942, 263.61467)"><g><path d="M 12.859375 -4.546875 C 12.859375 -2.972656 12.3125 -1.773438 11.21875 -0.953125 C 10.125 -0.128906 8.492188 0.28125 6.328125 0.28125 C 5.210938 0.28125 4.265625 0.203125 3.484375 0.046875 C 2.703125 -0.0976562 1.96875 -0.316406 1.28125 -0.609375 L 1.28125 -4.0625 C 2.0625 -3.695312 2.9375 -3.390625 3.90625 -3.140625 C 4.875 -2.898438 5.726562 -2.78125 6.46875 -2.78125 C 7.976562 -2.78125 8.734375 -3.21875 8.734375 -4.09375 C 8.734375 -4.414062 8.632812 -4.679688 8.4375 -4.890625 C 8.238281 -5.097656 7.890625 -5.328125 7.390625 -5.578125 C 6.898438 -5.835938 6.242188 -6.144531 5.421875 -6.5 C 4.253906 -6.988281 3.394531 -7.441406 2.84375 -7.859375 C 2.289062 -8.273438 1.890625 -8.753906 1.640625 -9.296875 C 1.390625 -9.847656 1.265625 -10.519531 1.265625 -11.3125 C 1.265625 -12.664062 1.789062 -13.710938 2.84375 -14.453125 C 3.894531 -15.203125 5.382812 -15.578125 7.3125 -15.578125 C 9.15625 -15.578125 10.945312 -15.175781 12.6875 -14.375 L 11.4375 -11.359375 C 10.664062 -11.691406 9.945312 -11.960938 9.28125 -12.171875 C 8.613281 -12.378906 7.9375 -12.484375 7.25 -12.484375 C 6.019531 -12.484375 5.40625 -12.148438 5.40625 -11.484375 C 5.40625 -11.109375 5.601562 -10.785156 6 -10.515625 C 6.394531 -10.242188 7.257812 -9.835938 8.59375 -9.296875 C 9.789062 -8.816406 10.664062 -8.363281 11.21875 -7.9375 C 11.78125 -7.519531 12.191406 -7.035156 12.453125 -6.484375 C 12.722656 -5.941406 12.859375 -5.296875 12.859375 -4.546875 Z M 12.859375 -4.546875 "/></g></g></g></svg>