<svg xmlns="http://www.w3.org/2000/svg" xmlns:xlink="http://www.w3.org/1999/xlink" width="500" zoomAndPan="magnify" viewBox="0 0 375 374.999991" height="500" preserveAspectRatio="xMidYMid meet" version="1.0"><defs><g/><clipPath id="3089df6752"><path d="M 112.5 95 L 262.5 95 L 262.5 242 L 112.5 242 Z M 112.5 95 " clip-rule="nonzero"/></clipPath></defs><g clip-path="url(#3089df6752)"><path fill="#d49b35" d="M 152.75 136.28125 C 153.199219 136.28125 153.566406 136.648438 153.566406 137.097656 C 153.566406 137.546875 153.199219 137.910156 152.75 137.910156 C 152.300781 137.910156 151.933594 137.546875 151.933594 137.097656 C 151.933594 136.648438 152.300781 136.28125 152.75 136.28125 Z M 201.433594 135.058594 C 201.148438 135.058594 200.945312 135.265625 200.945312 135.550781 C 200.945312 135.835938 201.148438 136.039062 201.433594 136.039062 C 201.71875 136.039062 201.921875 135.835938 201.921875 135.550781 C 201.921875 135.265625 201.71875 135.058594 201.433594 135.058594 Z M 199.964844 135.140625 C 199.597656 135.140625 199.355469 135.425781 199.355469 135.792969 C 199.355469 136.160156 199.640625 136.40625 200.007812 136.40625 C 200.375 136.40625 200.617188 136.121094 200.617188 135.753906 C 200.578125 135.386719 200.292969 135.140625 199.964844 135.140625 Z M 198.171875 135.34375 C 197.808594 135.34375 197.5625 135.628906 197.5625 135.996094 C 197.5625 136.363281 197.847656 136.609375 198.214844 136.609375 C 198.582031 136.609375 198.824219 136.324219 198.824219 135.957031 C 198.824219 135.628906 198.539062 135.34375 198.171875 135.34375 Z M 196.136719 135.507812 C 195.730469 135.507812 195.445312 135.835938 195.445312 136.199219 C 195.445312 136.609375 195.769531 136.894531 196.136719 136.894531 C 196.542969 136.894531 196.828125 136.566406 196.828125 136.199219 C 196.828125 135.835938 196.503906 135.507812 196.136719 135.507812 Z M 193.9375 135.671875 C 193.53125 135.671875 193.246094 135.996094 193.246094 136.363281 C 193.246094 136.769531 193.570312 137.054688 193.9375 137.054688 C 194.34375 137.054688 194.628906 136.730469 194.628906 136.363281 C 194.628906 135.996094 194.34375 135.671875 193.9375 135.671875 Z M 191.453125 135.835938 C 191.003906 135.835938 190.675781 136.199219 190.675781 136.609375 C 190.675781 137.054688 191.042969 137.382812 191.453125 137.382812 C 191.898438 137.382812 192.226562 137.015625 192.226562 136.609375 C 192.226562 136.160156 191.859375 135.792969 191.453125 135.835938 Z M 188.804688 135.835938 C 188.394531 135.835938 188.03125 136.199219 188.03125 136.609375 C 188.03125 137.015625 188.394531 137.382812 188.804688 137.382812 C 189.210938 137.382812 189.578125 137.015625 189.578125 136.609375 C 189.578125 136.199219 189.25 135.835938 188.804688 135.835938 Z M 173.609375 135.140625 C 173.894531 135.140625 174.097656 135.34375 174.097656 135.628906 C 174.097656 135.914062 173.894531 136.121094 173.609375 136.121094 C 173.324219 136.121094 173.121094 135.914062 173.121094 135.628906 C 173.121094 135.386719 173.363281 135.140625 173.609375 135.140625 Z M 175.117188 135.222656 C 175.480469 135.222656 175.765625 135.507812 175.765625 135.875 C 175.765625 136.242188 175.480469 136.527344 175.117188 136.527344 C 174.75 136.527344 174.464844 136.242188 174.464844 135.875 C 174.464844 135.507812 174.75 135.222656 175.117188 135.222656 Z M 176.867188 135.425781 C 177.234375 135.425781 177.519531 135.710938 177.519531 136.078125 C 177.519531 136.445312 177.234375 136.730469 176.867188 136.730469 C 176.5 136.730469 176.214844 136.445312 176.214844 136.078125 C 176.257812 135.710938 176.542969 135.425781 176.867188 135.425781 Z M 178.945312 135.550781 C 179.351562 135.550781 179.636719 135.875 179.636719 136.242188 C 179.636719 136.648438 179.3125 136.933594 178.945312 136.933594 C 178.578125 136.933594 178.253906 136.609375 178.253906 136.242188 C 178.210938 135.875 178.539062 135.550781 178.945312 135.550781 Z M 181.144531 135.710938 C 181.550781 135.710938 181.835938 136.039062 181.835938 136.40625 C 181.835938 136.8125 181.511719 137.097656 181.144531 137.097656 C 180.738281 137.097656 180.453125 136.769531 180.453125 136.40625 C 180.410156 136.039062 180.738281 135.710938 181.144531 135.710938 Z M 183.628906 135.835938 C 184.078125 135.835938 184.402344 136.199219 184.402344 136.609375 C 184.402344 137.054688 184.039062 137.382812 183.628906 137.382812 C 183.222656 137.382812 182.855469 137.015625 182.855469 136.609375 C 182.855469 136.160156 183.183594 135.835938 183.628906 135.835938 Z M 186.238281 135.835938 C 186.644531 135.835938 187.011719 136.160156 187.011719 136.609375 C 187.011719 137.015625 186.683594 137.382812 186.238281 137.382812 C 185.828125 137.382812 185.464844 137.054688 185.464844 136.609375 C 185.503906 136.160156 185.828125 135.835938 186.238281 135.835938 Z M 186.277344 196.820312 C 184.527344 195.394531 182.734375 194.621094 180.820312 194.988281 C 179.394531 195.3125 178.414062 196.535156 177.683594 198.449219 C 175.808594 202.402344 173.933594 205.128906 172.058594 206.109375 C 177.925781 205.578125 182.039062 204.84375 183.546875 203.746094 C 183.058594 206.066406 183.058594 208.390625 183.914062 210.671875 C 184.566406 213.117188 185.953125 213.972656 185.910156 218.046875 C 186.480469 214.542969 187.582031 214.175781 188.84375 211.933594 C 190.960938 208.59375 191.125 206.027344 190.351562 202.769531 C 191.695312 204.558594 194.464844 205.496094 197.398438 205.660156 C 199.191406 205.742188 201.230469 206.148438 203.144531 206.394531 C 201.308594 205.050781 199.964844 203.746094 198.703125 201.585938 C 197.808594 199.792969 197.074219 197.636719 195.6875 196.207031 C 194.996094 195.191406 193.488281 194.578125 191.613281 195.394531 C 190.1875 195.800781 189.375 196.453125 188.601562 197.144531 C 191.574219 197.144531 193.164062 198.570312 194.019531 200.773438 C 192.308594 198.652344 190.351562 197.511719 188.03125 198.042969 C 189.171875 202.117188 188.476562 205.171875 186.726562 207.65625 C 187.949219 204.113281 188.394531 200.773438 186.847656 197.878906 C 184.039062 197.554688 182.367188 198.980469 180.898438 200.648438 C 181.878906 198.367188 183.222656 196.984375 186.277344 196.820312 Z M 170.835938 127.6875 C 172.019531 132.167969 173.8125 131.433594 175.808594 126.585938 C 176.460938 126.300781 177.113281 125.894531 177.519531 125.078125 C 177.84375 124.507812 177.925781 123.980469 177.84375 123.410156 C 177.804688 123.125 177.722656 123 177.355469 122.960938 C 177.476562 122.066406 177.273438 121.371094 176.746094 120.921875 C 175.890625 121.453125 175.402344 122.269531 175.320312 123.410156 C 174.992188 123.367188 174.789062 123.613281 174.667969 124.0625 C 174.546875 124.671875 174.625 125.242188 174.871094 125.851562 C 175.117188 126.21875 175.402344 126.503906 175.847656 126.585938 C 178.210938 133.144531 180.898438 131.433594 183.140625 126.21875 C 181.878906 125.730469 181.183594 124.875 181.023438 123.695312 C 180.859375 122.796875 181.390625 122.226562 182 122.429688 C 182 120.71875 182.53125 120.066406 183.589844 120.109375 C 184.8125 120.191406 185.054688 121.003906 184.769531 122.269531 C 185.585938 122.105469 185.953125 122.554688 185.75 123.613281 C 185.339844 124.710938 184.484375 125.609375 183.183594 126.179688 C 184.933594 131.476562 189.292969 132.941406 191.898438 126.21875 C 193.164062 125.730469 193.894531 124.875 194.058594 123.695312 C 194.222656 122.796875 193.691406 122.226562 193.082031 122.429688 C 193.082031 120.71875 192.550781 120.066406 191.492188 120.109375 C 190.3125 120.191406 190.027344 121.003906 190.3125 122.269531 C 189.496094 122.105469 189.128906 122.554688 189.332031 123.613281 C 189.742188 124.753906 190.597656 125.609375 191.941406 126.21875 C 194.628906 131.882812 196.871094 132.699219 199.273438 126.789062 C 201.1875 131.433594 203.265625 132.207031 204.203125 127.769531 C 203.589844 126.585938 203.144531 125.566406 203.265625 124.589844 C 203.183594 124.0625 203.226562 123.695312 203.265625 123.207031 C 203.671875 123.613281 203.796875 124.140625 203.917969 124.589844 C 204.449219 125.933594 204.570312 126.75 204.203125 127.769531 C 204.324219 128.910156 204.121094 130.375 203.671875 132.003906 C 203.589844 131.964844 203.511719 131.882812 203.386719 131.882812 C 202.859375 132.003906 202.695312 132.453125 202.65625 132.984375 C 202.328125 132.941406 202.164062 133.105469 202.207031 133.429688 C 202.289062 133.917969 202.449219 134.246094 202.859375 134.488281 L 202.859375 134.53125 C 192.632812 136.039062 182.324219 136.199219 171.898438 134.613281 L 171.898438 134.570312 C 172.425781 134.328125 172.792969 134 172.835938 133.390625 C 172.835938 133.023438 172.875 132.777344 172.386719 132.859375 C 172.304688 132.207031 172.058594 131.882812 171.570312 131.84375 C 171.449219 131.921875 171.328125 132.003906 171.246094 132.085938 C 171 130.699219 170.878906 129.273438 170.835938 127.6875 L 170.796875 127.769531 C 170.472656 126.832031 170.59375 126.058594 171.121094 124.792969 C 171.285156 124.347656 171.40625 123.855469 171.773438 123.492188 C 171.816406 123.980469 171.816406 124.304688 171.734375 124.792969 C 171.816406 125.691406 171.40625 126.628906 170.835938 127.6875 Z M 171.285156 124.957031 L 171.449219 124.957031 L 171.449219 124.589844 C 171.449219 124.550781 171.328125 124.875 171.285156 124.957031 Z M 175.808594 123.082031 L 176.785156 123 L 176.542969 121.78125 Z M 184.242188 122.308594 L 183.46875 120.800781 L 182.53125 122.429688 Z M 190.839844 122.308594 L 192.550781 122.429688 L 191.613281 120.800781 Z M 199.804688 123.367188 C 199.722656 122.226562 199.234375 121.414062 198.378906 120.882812 C 197.847656 121.332031 197.601562 122.023438 197.765625 122.921875 C 197.359375 122.960938 197.316406 123.082031 197.277344 123.367188 C 197.195312 123.898438 197.277344 124.46875 197.601562 125.039062 C 198.011719 125.851562 198.664062 126.261719 199.3125 126.546875 C 199.761719 126.464844 200.046875 126.179688 200.292969 125.8125 C 200.535156 125.242188 200.617188 124.632812 200.496094 124.019531 C 200.332031 123.570312 200.089844 123.328125 199.804688 123.367188 Z M 199.273438 123.042969 L 198.539062 121.738281 L 198.296875 122.960938 Z M 203.796875 124.792969 C 203.753906 124.753906 203.589844 124.386719 203.589844 124.386719 L 203.589844 124.792969 Z M 202.207031 136.199219 C 201.800781 137.179688 201.351562 138.195312 200.863281 139.257812 C 192.386719 141.332031 183.46875 141.496094 174.015625 139.257812 C 173.40625 138.195312 172.914062 137.179688 172.507812 136.242188 C 182.570312 138.074219 192.429688 137.832031 202.207031 136.199219 Z M 178.414062 132.984375 C 178.089844 132.984375 177.925781 133.144531 178.007812 133.472656 C 178.128906 134.042969 178.375 134.367188 178.984375 134.613281 C 179.554688 134.410156 179.964844 134.164062 180.085938 133.59375 C 180.125 133.226562 180.207031 132.984375 179.71875 132.984375 C 179.71875 132.332031 179.515625 131.964844 179.066406 131.839844 C 178.539062 132.003906 178.414062 132.453125 178.414062 132.984375 Z M 178.902344 132.617188 C 178.824219 132.617188 178.78125 132.65625 178.78125 132.738281 C 178.824219 132.902344 178.902344 132.984375 179.027344 133.0625 C 179.1875 133.023438 179.269531 132.941406 179.3125 132.777344 C 179.3125 132.699219 179.351562 132.617188 179.230469 132.617188 C 179.230469 132.453125 179.1875 132.332031 179.066406 132.332031 C 178.945312 132.371094 178.902344 132.492188 178.902344 132.617188 Z M 186.847656 133.0625 C 186.523438 133.0625 186.320312 133.269531 186.398438 133.59375 C 186.5625 134.203125 186.808594 134.570312 187.5 134.855469 C 188.109375 134.652344 188.601562 134.367188 188.722656 133.714844 C 188.761719 133.308594 188.84375 133.023438 188.316406 133.0625 C 188.355469 132.371094 188.109375 131.921875 187.582031 131.800781 C 186.96875 131.964844 186.847656 132.453125 186.847656 133.0625 Z M 187.335938 132.65625 C 187.253906 132.65625 187.175781 132.699219 187.214844 132.820312 C 187.253906 132.984375 187.335938 133.105469 187.5 133.144531 C 187.664062 133.105469 187.785156 133.023438 187.824219 132.820312 C 187.824219 132.699219 187.867188 132.65625 187.703125 132.65625 C 187.703125 132.453125 187.664062 132.332031 187.5 132.332031 C 187.378906 132.371094 187.335938 132.535156 187.335938 132.65625 Z M 195.28125 132.859375 C 194.957031 132.859375 194.792969 133.023438 194.875 133.347656 C 194.996094 133.917969 195.242188 134.246094 195.851562 134.488281 C 196.421875 134.285156 196.828125 134.042969 196.953125 133.472656 C 196.992188 133.105469 197.074219 132.859375 196.585938 132.859375 C 196.585938 132.207031 196.382812 131.84375 195.933594 131.71875 C 195.402344 131.921875 195.28125 132.371094 195.28125 132.859375 Z M 195.730469 132.535156 C 195.648438 132.535156 195.605469 132.574219 195.605469 132.65625 C 195.648438 132.820312 195.730469 132.902344 195.851562 132.984375 C 196.015625 132.941406 196.097656 132.859375 196.136719 132.699219 C 196.136719 132.617188 196.175781 132.535156 196.054688 132.535156 C 196.054688 132.371094 196.015625 132.25 195.890625 132.25 C 195.769531 132.289062 195.730469 132.414062 195.730469 132.535156 Z M 203.511719 132.617188 C 203.511719 132.535156 203.429688 132.453125 203.347656 132.414062 C 203.183594 132.453125 203.144531 132.574219 203.144531 132.699219 C 203.0625 132.699219 203.019531 132.738281 203.019531 132.820312 C 203.0625 132.984375 203.101562 133.0625 203.265625 133.144531 L 203.347656 133.144531 C 203.386719 132.941406 203.46875 132.777344 203.511719 132.617188 Z M 171.53125 132.65625 C 171.449219 132.65625 171.40625 132.738281 171.449219 132.777344 C 171.488281 132.941406 171.570312 132.984375 171.734375 133.0625 C 171.855469 132.984375 171.980469 132.902344 171.980469 132.738281 C 171.980469 132.617188 171.980469 132.574219 171.855469 132.574219 C 171.855469 132.414062 171.773438 132.289062 171.652344 132.289062 C 171.53125 132.414062 171.488281 132.535156 171.53125 132.65625 Z M 152.75 200.609375 C 153.199219 200.609375 153.566406 200.242188 153.566406 199.792969 C 153.566406 199.347656 153.199219 198.980469 152.75 198.980469 C 152.300781 198.980469 151.933594 199.347656 151.933594 199.792969 C 151.976562 200.242188 152.300781 200.609375 152.75 200.609375 Z M 222.25 200.609375 C 221.800781 200.609375 221.433594 200.242188 221.433594 199.792969 C 221.433594 199.347656 221.800781 198.980469 222.25 198.980469 C 222.699219 198.980469 223.066406 199.347656 223.066406 199.792969 C 223.066406 200.242188 222.699219 200.609375 222.25 200.609375 Z M 262.5 240.613281 C 252.398438 241.511719 245.429688 237.273438 238.628906 228.472656 L 225.875 211.160156 C 222.25 206.636719 217.933594 202.238281 212.433594 199.222656 C 217.035156 202.441406 222.65625 206.109375 224.367188 214.746094 C 225.347656 222.445312 221.84375 229.695312 216.832031 231.816406 C 213.289062 233.605469 207.339844 232.957031 203.429688 230.0625 C 210.3125 233.890625 217.808594 231.039062 220.253906 227.171875 C 224.207031 221.058594 223.714844 213.035156 220.785156 208.960938 C 220.5 208.511719 220.171875 208.105469 219.847656 207.65625 C 224.734375 218.085938 219.644531 229.859375 206.972656 229.289062 C 207.015625 228.597656 207.828125 227.414062 208.886719 226.886719 C 210.84375 225.703125 212.878906 224.683594 214.753906 223.300781 C 217.566406 221.34375 219.644531 218.902344 220.292969 215.476562 C 220.621094 212.789062 220.050781 209.816406 218.949219 206.597656 C 218.011719 205.457031 216.996094 204.398438 215.894531 203.417969 C 216.792969 204.683594 217.320312 207.128906 217.15625 208.511719 C 216.34375 212.097656 214.796875 212.707031 213.492188 213.117188 C 211.820312 213.605469 210.476562 213.238281 209.417969 212.136719 C 208.277344 210.875 208.359375 209.082031 209.375 208.1875 C 210.800781 207.167969 212.1875 207.046875 213.410156 208.144531 C 211.332031 207.738281 209.742188 207.984375 209.296875 209.855469 C 209.253906 211.160156 210.027344 212.015625 211.25 212.546875 C 213.410156 212.789062 214.796875 211.976562 215.730469 210.628906 C 216.914062 208.917969 216.585938 206.515625 215.8125 205.007812 C 215.160156 203.664062 214.183594 202.605469 213.207031 201.789062 C 204.367188 196.535156 198.253906 194.210938 187.539062 193.355469 C 176.828125 194.210938 170.714844 196.535156 161.875 201.789062 C 160.855469 202.605469 159.878906 203.664062 159.269531 205.007812 C 158.492188 206.515625 158.207031 208.917969 159.347656 210.628906 C 160.285156 211.976562 161.671875 212.789062 163.832031 212.546875 C 165.054688 212.015625 165.828125 211.160156 165.785156 209.855469 C 165.339844 208.023438 163.75 207.738281 161.671875 208.144531 C 162.933594 207.046875 164.277344 207.167969 165.703125 208.1875 C 166.683594 209.042969 166.804688 210.835938 165.664062 212.136719 C 164.605469 213.238281 163.261719 213.605469 161.589844 213.117188 C 160.285156 212.75 158.738281 212.097656 157.921875 208.511719 C 157.71875 207.128906 158.289062 204.683594 159.1875 203.417969 C 158.085938 204.4375 157.066406 205.496094 156.132812 206.597656 C 155.03125 209.816406 154.460938 212.789062 154.785156 215.476562 C 155.480469 218.902344 157.558594 221.34375 160.328125 223.300781 C 162.242188 224.683594 164.238281 225.703125 166.195312 226.886719 C 167.253906 227.457031 168.066406 228.597656 168.109375 229.289062 C 155.4375 229.859375 150.347656 218.085938 155.234375 207.65625 C 154.910156 208.0625 154.582031 208.511719 154.296875 208.960938 C 151.363281 213.035156 150.875 221.058594 154.828125 227.171875 C 157.230469 231 164.769531 233.851562 171.652344 230.0625 C 167.742188 232.957031 161.792969 233.605469 158.25 231.816406 C 153.199219 229.695312 149.734375 222.445312 150.714844 214.746094 C 152.382812 206.148438 158.046875 202.441406 162.648438 199.222656 C 157.148438 202.238281 152.832031 206.636719 149.207031 211.160156 L 136.414062 228.515625 C 129.652344 237.3125 122.644531 241.550781 112.539062 240.65625 C 117.347656 240.410156 121.789062 239.027344 125.738281 236.09375 C 130.304688 232.832031 134.296875 228.71875 137.921875 223.953125 C 141.628906 219.550781 144.234375 214.703125 147.859375 210.589844 C 146.476562 211.28125 143.949219 211.484375 142.566406 211.078125 C 139.101562 209.734375 138.695312 208.105469 138.492188 206.71875 C 138.246094 205.007812 138.816406 203.703125 140.082031 202.808594 C 141.546875 201.832031 143.296875 202.199219 144.03125 203.339844 C 144.847656 204.925781 144.765625 206.3125 143.503906 207.371094 C 144.234375 205.375 144.195312 203.703125 142.402344 203.011719 C 141.097656 202.808594 140.160156 203.417969 139.429688 204.601562 C 138.859375 206.761719 139.46875 208.226562 140.691406 209.367188 C 142.199219 210.792969 144.683594 210.835938 146.3125 210.304688 C 147.738281 209.855469 148.960938 209.042969 149.898438 208.144531 C 157.066406 199.0625 167.335938 194.824219 173.28125 193.722656 C 165.582031 194.78125 158.085938 197.429688 150.875 203.296875 C 153.238281 200.40625 156.742188 198 161.0625 196.210938 C 160.980469 196.210938 160.898438 196.25 160.855469 196.25 C 160.246094 196.25 159.757812 195.761719 159.757812 195.148438 C 159.757812 194.539062 160.246094 194.050781 160.855469 194.050781 C 161.46875 194.050781 161.957031 194.539062 161.957031 195.148438 C 161.957031 195.558594 161.753906 195.882812 161.46875 196.085938 C 162.039062 195.84375 162.609375 195.636719 163.21875 195.433594 L 163.058594 195.433594 C 162.40625 195.433594 161.875 194.90625 161.875 194.253906 C 161.875 193.601562 162.40625 193.070312 163.058594 193.070312 C 163.707031 193.070312 164.238281 193.601562 164.238281 194.253906 C 164.238281 194.703125 163.992188 195.066406 163.628906 195.273438 C 170.265625 193.03125 178.539062 192.175781 187.664062 193.113281 C 196.789062 192.175781 205.058594 193.03125 211.699219 195.273438 C 211.332031 195.066406 211.085938 194.703125 211.085938 194.253906 C 211.085938 193.601562 211.617188 193.070312 212.269531 193.070312 C 212.921875 193.070312 213.449219 193.601562 213.449219 194.253906 C 213.449219 194.90625 212.921875 195.433594 212.269531 195.433594 L 212.105469 195.433594 C 212.71875 195.636719 213.289062 195.84375 213.859375 196.085938 C 213.574219 195.882812 213.367188 195.558594 213.367188 195.148438 C 213.367188 194.539062 213.859375 194.050781 214.46875 194.050781 C 215.082031 194.050781 215.570312 194.539062 215.570312 195.148438 C 215.570312 195.761719 215.082031 196.25 214.46875 196.25 C 214.386719 196.25 214.304688 196.25 214.265625 196.210938 C 218.582031 198 222.046875 200.40625 224.449219 203.296875 C 217.238281 197.429688 209.703125 194.78125 202.042969 193.722656 C 207.949219 194.824219 218.257812 199.0625 225.425781 208.144531 C 226.363281 209.042969 227.585938 209.855469 229.011719 210.304688 C 230.640625 210.875 233.085938 210.792969 234.632812 209.367188 C 235.855469 208.226562 236.46875 206.761719 235.898438 204.601562 C 235.164062 203.460938 234.226562 202.808594 232.921875 203.011719 C 231.132812 203.746094 231.132812 205.375 231.824219 207.371094 C 230.519531 206.269531 230.480469 204.925781 231.292969 203.339844 C 232.027344 202.238281 233.777344 201.871094 235.246094 202.808594 C 236.507812 203.703125 237.039062 205.007812 236.835938 206.71875 C 236.632812 208.0625 236.265625 209.734375 232.761719 211.078125 C 231.375 211.484375 228.890625 211.28125 227.464844 210.589844 C 231.089844 214.703125 233.65625 219.550781 237.40625 223.953125 C 241.03125 228.679688 245.023438 232.832031 249.585938 236.09375 C 253.253906 238.984375 257.691406 240.371094 262.5 240.613281 Z M 224.898438 215.640625 C 225.304688 220.042969 224.855469 224.035156 222.941406 227.375 C 221.070312 230.183594 218.828125 232.425781 215.730469 234.339844 C 214.429688 235.03125 215.773438 235.808594 216.792969 235.441406 C 220.335938 233.648438 222.128906 230.835938 223.636719 227.820312 C 225.792969 223.789062 225.632812 218.207031 224.898438 215.640625 Z M 228.566406 219.023438 C 231.007812 227.292969 234.796875 234.460938 239.890625 240.65625 C 240.867188 242.121094 243.761719 241.347656 241.722656 238.863281 C 234.308594 232.140625 230.640625 225.335938 228.566406 219.023438 Z M 252.519531 200.160156 C 251.703125 204.355469 250.644531 208.511719 247.140625 211.078125 C 242.457031 215.96875 232.921875 214.214844 231.050781 212.421875 C 233.492188 215.640625 243.921875 216.78125 248.648438 212.667969 C 252.925781 209.773438 253.617188 205.457031 252.519531 200.160156 Z M 216.871094 205.253906 C 217.726562 207.371094 217.769531 209.488281 216.222656 211.566406 C 214.753906 213.117188 214.019531 214.621094 214.835938 215.925781 C 215.445312 216.539062 216.425781 216.292969 216.871094 215.234375 C 216.996094 214.867188 216.507812 214.582031 216.300781 214.90625 C 215.570312 216.332031 214.835938 215.113281 215.445312 214.417969 C 220.417969 210.183594 219.316406 207.535156 216.871094 205.253906 Z M 229.339844 211.363281 C 231.988281 213.441406 234.757812 214.09375 238.136719 208.511719 C 238.707031 207.777344 240.054688 208.308594 238.75 209.246094 C 238.464844 209.53125 238.871094 209.9375 239.199219 209.773438 C 240.175781 209.164062 240.257812 208.144531 239.5625 207.65625 C 238.136719 207.046875 236.792969 207.984375 235.488281 209.695312 C 233.65625 211.566406 231.578125 211.851562 229.339844 211.363281 Z M 227.667969 227.984375 C 227.832031 226.394531 228.117188 224.5625 228.074219 222.527344 C 227.710938 218.738281 226.933594 216.171875 225.917969 214.132812 C 226.691406 216.902344 226.933594 219.757812 226.855469 222.402344 C 226.894531 224.238281 226.363281 227.332031 227.667969 227.984375 Z M 243.882812 222.363281 C 239.15625 220.53125 235.042969 218.046875 231.457031 214.867188 C 232.800781 216.945312 234.390625 218.820312 236.792969 220.082031 C 238.953125 221.34375 241.316406 222.078125 243.882812 222.363281 Z M 252.476562 225.050781 C 251.09375 222.8125 247.140625 220.449219 244.410156 222.566406 C 245.550781 225.664062 248.894531 226.152344 252.476562 225.050781 Z M 228.851562 234.910156 C 229.992188 233.199219 230.316406 229.371094 227.914062 228.230469 C 226.039062 230.105469 226.730469 232.75 228.851562 234.910156 Z M 198.253906 192.828125 C 198.664062 192.828125 198.988281 192.5 198.988281 192.09375 C 198.988281 191.6875 198.664062 191.359375 198.253906 191.359375 C 197.847656 191.359375 197.523438 191.6875 197.523438 192.09375 C 197.523438 192.5 197.847656 192.828125 198.253906 192.828125 Z M 200.984375 192.949219 C 201.433594 192.949219 201.800781 192.582031 201.800781 192.136719 C 201.800781 191.6875 201.433594 191.320312 200.984375 191.320312 C 200.535156 191.320312 200.167969 191.6875 200.167969 192.136719 C 200.128906 192.582031 200.496094 192.949219 200.984375 192.949219 Z M 203.796875 193.277344 C 204.324219 193.277344 204.773438 192.828125 204.773438 192.296875 C 204.773438 191.769531 204.324219 191.320312 203.796875 191.320312 C 203.265625 191.320312 202.816406 191.769531 202.816406 192.296875 C 202.816406 192.867188 203.265625 193.277344 203.796875 193.277344 Z M 206.605469 193.722656 C 207.175781 193.722656 207.664062 193.234375 207.664062 192.664062 C 207.664062 192.09375 207.175781 191.605469 206.605469 191.605469 C 206.035156 191.605469 205.546875 192.09375 205.546875 192.664062 C 205.546875 193.234375 206.035156 193.722656 206.605469 193.722656 Z M 209.335938 194.375 C 209.945312 194.375 210.4375 193.886719 210.4375 193.277344 C 210.4375 192.664062 209.945312 192.175781 209.335938 192.175781 C 208.726562 192.175781 208.234375 192.664062 208.234375 193.277344 C 208.234375 193.886719 208.726562 194.375 209.335938 194.375 Z M 216.382812 197.144531 C 216.953125 197.144531 217.441406 196.65625 217.441406 196.085938 C 217.441406 195.515625 216.953125 195.027344 216.382812 195.027344 C 215.8125 195.027344 215.324219 195.515625 215.324219 196.085938 C 215.324219 196.65625 215.8125 197.144531 216.382812 197.144531 Z M 218.460938 198.125 C 218.992188 198.125 219.398438 197.714844 219.398438 197.1875 C 219.398438 196.65625 218.992188 196.25 218.460938 196.25 C 217.933594 196.25 217.523438 196.65625 217.523438 197.1875 C 217.523438 197.675781 217.933594 198.125 218.460938 198.125 Z M 220.417969 199.222656 C 220.90625 199.222656 221.273438 198.855469 221.273438 198.367188 C 221.273438 197.878906 220.90625 197.511719 220.417969 197.511719 C 219.929688 197.511719 219.5625 197.878906 219.5625 198.367188 C 219.5625 198.855469 219.929688 199.222656 220.417969 199.222656 Z M 150.101562 215.640625 C 149.367188 218.167969 149.207031 223.789062 151.363281 227.820312 C 152.832031 230.835938 154.664062 233.648438 158.207031 235.441406 C 159.269531 235.808594 160.570312 235.03125 159.269531 234.339844 C 156.171875 232.425781 153.929688 230.144531 152.058594 227.375 C 150.183594 224.035156 149.734375 220.042969 150.101562 215.640625 Z M 146.433594 219.023438 C 144.359375 225.335938 140.691406 232.140625 133.277344 238.863281 C 131.238281 241.308594 134.132812 242.121094 135.109375 240.65625 C 140.203125 234.460938 144.03125 227.292969 146.433594 219.023438 Z M 122.523438 200.160156 C 121.382812 205.457031 122.113281 209.773438 126.390625 212.707031 C 131.117188 216.824219 141.546875 215.640625 143.992188 212.464844 C 142.117188 214.257812 132.585938 215.96875 127.898438 211.121094 C 124.394531 208.511719 123.296875 204.355469 122.523438 200.160156 Z M 158.167969 205.253906 C 155.683594 207.535156 154.582031 210.183594 159.554688 214.378906 C 160.164062 215.070312 159.429688 216.292969 158.699219 214.867188 C 158.453125 214.542969 157.964844 214.867188 158.128906 215.191406 C 158.574219 216.253906 159.554688 216.496094 160.164062 215.886719 C 160.980469 214.582031 160.285156 213.074219 158.777344 211.527344 C 157.273438 209.488281 157.3125 207.371094 158.167969 205.253906 Z M 145.660156 211.363281 C 143.421875 211.851562 141.34375 211.566406 139.550781 209.695312 C 138.246094 207.984375 136.902344 207.046875 135.476562 207.65625 C 134.785156 208.144531 134.867188 209.164062 135.84375 209.773438 C 136.167969 209.980469 136.535156 209.53125 136.292969 209.246094 C 135.027344 208.308594 136.332031 207.777344 136.902344 208.511719 C 140.203125 214.09375 143.011719 213.441406 145.660156 211.363281 Z M 147.332031 227.984375 C 148.59375 227.332031 148.105469 224.238281 148.144531 222.445312 C 148.023438 219.757812 148.269531 216.945312 149.082031 214.175781 C 148.066406 216.210938 147.289062 218.738281 146.925781 222.566406 C 146.882812 224.5625 147.167969 226.394531 147.332031 227.984375 Z M 131.117188 222.363281 C 133.644531 222.078125 136.046875 221.34375 138.207031 220.121094 C 140.609375 218.859375 142.199219 216.984375 143.542969 214.90625 C 139.957031 218.003906 135.84375 220.53125 131.117188 222.363281 Z M 122.523438 225.050781 C 126.105469 226.152344 129.449219 225.664062 130.589844 222.566406 C 127.859375 220.449219 123.949219 222.769531 122.523438 225.050781 Z M 146.148438 234.910156 C 148.269531 232.75 148.960938 230.0625 147.085938 228.230469 C 144.683594 229.371094 145.007812 233.199219 146.148438 234.910156 Z M 176.746094 192.828125 C 177.152344 192.828125 177.476562 192.5 177.476562 192.09375 C 177.476562 191.6875 177.152344 191.359375 176.746094 191.359375 C 176.335938 191.359375 176.011719 191.6875 176.011719 192.09375 C 176.011719 192.5 176.335938 192.828125 176.746094 192.828125 Z M 174.015625 192.949219 C 174.464844 192.949219 174.832031 192.582031 174.832031 192.136719 C 174.832031 191.6875 174.464844 191.320312 174.015625 191.320312 C 173.566406 191.320312 173.199219 191.6875 173.199219 192.136719 C 173.199219 192.582031 173.566406 192.949219 174.015625 192.949219 Z M 171.203125 193.277344 C 171.734375 193.277344 172.183594 192.828125 172.183594 192.296875 C 172.183594 191.769531 171.734375 191.320312 171.203125 191.320312 C 170.675781 191.320312 170.226562 191.769531 170.226562 192.296875 C 170.226562 192.867188 170.675781 193.277344 171.203125 193.277344 Z M 168.394531 193.722656 C 168.964844 193.722656 169.453125 193.234375 169.453125 192.664062 C 169.453125 192.09375 168.964844 191.605469 168.394531 191.605469 C 167.824219 191.605469 167.335938 192.09375 167.335938 192.664062 C 167.375 193.234375 167.824219 193.722656 168.394531 193.722656 Z M 165.703125 194.375 C 166.316406 194.375 166.804688 193.886719 166.804688 193.277344 C 166.804688 192.664062 166.316406 192.175781 165.703125 192.175781 C 165.09375 192.175781 164.605469 192.664062 164.605469 193.277344 C 164.605469 193.886719 165.09375 194.375 165.703125 194.375 Z M 158.617188 197.144531 C 159.1875 197.144531 159.675781 196.65625 159.675781 196.085938 C 159.675781 195.515625 159.1875 195.027344 158.617188 195.027344 C 158.046875 195.027344 157.558594 195.515625 157.558594 196.085938 C 157.558594 196.65625 158.046875 197.144531 158.617188 197.144531 Z M 156.539062 198.125 C 157.066406 198.125 157.476562 197.714844 157.476562 197.1875 C 157.476562 196.65625 157.066406 196.25 156.539062 196.25 C 156.007812 196.25 155.601562 196.65625 155.601562 197.1875 C 155.601562 197.675781 156.050781 198.125 156.539062 198.125 Z M 154.582031 199.222656 C 155.070312 199.222656 155.4375 198.855469 155.4375 198.367188 C 155.4375 197.878906 155.070312 197.511719 154.582031 197.511719 C 154.09375 197.511719 153.726562 197.878906 153.726562 198.367188 C 153.726562 198.855469 154.09375 199.222656 154.582031 199.222656 Z M 222.210938 136.28125 C 221.761719 136.28125 221.394531 136.648438 221.394531 137.097656 C 221.394531 137.546875 221.761719 137.910156 222.210938 137.910156 C 222.65625 137.910156 223.023438 137.546875 223.023438 137.097656 C 223.023438 136.648438 222.65625 136.28125 222.210938 136.28125 Z M 262.460938 96.277344 C 252.355469 95.378906 245.390625 99.617188 238.585938 108.417969 L 225.835938 125.773438 C 222.210938 130.292969 217.890625 134.695312 212.390625 137.707031 C 216.996094 134.488281 222.617188 130.824219 224.328125 122.1875 C 225.304688 114.488281 221.800781 107.234375 216.792969 105.117188 C 213.246094 103.324219 207.300781 103.976562 203.386719 106.867188 C 210.273438 103.039062 217.769531 105.890625 220.214844 109.761719 C 224.164062 115.871094 223.675781 123.898438 220.742188 127.972656 C 220.457031 128.417969 220.132812 128.828125 219.804688 129.273438 C 224.695312 118.847656 219.601562 107.074219 206.933594 107.644531 C 206.972656 108.335938 207.789062 109.515625 208.847656 110.046875 C 210.800781 111.226562 212.839844 112.246094 214.714844 113.632812 C 217.523438 115.585938 219.601562 118.03125 220.253906 121.453125 C 220.578125 124.140625 220.007812 127.117188 218.910156 130.335938 C 217.972656 131.476562 216.953125 132.535156 215.855469 133.511719 C 216.75 132.25 217.28125 129.804688 217.117188 128.417969 C 216.300781 124.835938 214.753906 124.222656 213.449219 123.816406 C 211.78125 123.328125 210.4375 123.695312 209.375 124.792969 C 208.234375 126.058594 208.316406 127.847656 209.335938 128.746094 C 210.761719 129.765625 212.148438 129.886719 213.367188 128.785156 C 211.292969 129.195312 209.703125 128.949219 209.253906 127.074219 C 209.214844 125.773438 209.988281 124.917969 211.210938 124.386719 C 213.367188 124.140625 214.753906 124.957031 215.691406 126.300781 C 216.871094 128.011719 216.546875 130.414062 215.773438 131.921875 C 215.121094 133.269531 214.144531 134.328125 213.164062 135.140625 C 204.324219 140.398438 198.214844 142.71875 187.5 143.574219 C 176.785156 142.71875 170.675781 140.398438 161.835938 135.140625 C 160.816406 134.328125 159.839844 133.269531 159.226562 131.921875 C 158.453125 130.414062 158.167969 128.011719 159.308594 126.300781 C 160.246094 124.957031 161.632812 124.140625 163.789062 124.386719 C 165.011719 124.917969 165.785156 125.773438 165.746094 127.074219 C 165.296875 128.910156 163.707031 129.195312 161.632812 128.785156 C 162.894531 129.886719 164.238281 129.765625 165.664062 128.746094 C 166.640625 127.890625 166.765625 126.097656 165.625 124.792969 C 164.5625 123.695312 163.21875 123.328125 161.550781 123.816406 C 160.246094 124.183594 158.699219 124.835938 157.882812 128.417969 C 157.679688 129.804688 158.25 132.25 159.144531 133.511719 C 158.046875 132.492188 157.027344 131.433594 156.089844 130.335938 C 154.992188 127.117188 154.421875 124.140625 154.746094 121.453125 C 155.4375 118.03125 157.515625 115.585938 160.285156 113.632812 C 162.203125 112.246094 164.199219 111.226562 166.152344 110.046875 C 167.210938 109.476562 168.027344 108.335938 168.066406 107.644531 C 155.398438 107.074219 150.304688 118.847656 155.195312 129.273438 C 154.867188 128.867188 154.542969 128.417969 154.257812 127.972656 C 151.324219 123.898438 150.835938 115.871094 154.785156 109.761719 C 157.191406 105.933594 164.726562 103.082031 171.613281 106.867188 C 167.699219 103.976562 161.753906 103.324219 158.207031 105.117188 C 153.15625 107.234375 149.695312 114.488281 150.671875 122.1875 C 152.34375 130.78125 158.003906 134.488281 162.609375 137.707031 C 157.109375 134.695312 152.789062 130.292969 149.164062 125.773438 L 136.371094 108.417969 C 129.609375 99.617188 122.601562 95.378906 112.5 96.277344 C 117.308594 96.519531 121.746094 97.90625 125.699219 100.839844 C 130.261719 104.097656 134.253906 108.214844 137.878906 112.980469 C 141.585938 117.378906 144.195312 122.226562 147.820312 126.34375 C 146.433594 125.648438 143.910156 125.445312 142.523438 125.851562 C 139.0625 127.199219 138.652344 128.828125 138.449219 130.210938 C 138.207031 131.921875 138.777344 133.226562 140.039062 134.125 C 141.507812 135.101562 143.257812 134.734375 143.992188 133.59375 C 144.804688 132.003906 144.722656 130.621094 143.460938 129.558594 C 144.195312 131.554688 144.152344 133.226562 142.363281 133.917969 C 141.058594 134.125 140.121094 133.511719 139.386719 132.332031 C 138.816406 130.171875 139.429688 128.703125 140.652344 127.5625 C 142.15625 126.136719 144.644531 126.097656 146.273438 126.628906 C 147.699219 127.074219 148.921875 127.890625 149.855469 128.785156 C 157.027344 137.871094 167.292969 142.109375 173.242188 143.207031 C 165.542969 142.148438 158.046875 139.5 150.835938 133.632812 C 153.199219 136.527344 156.703125 138.929688 161.019531 140.722656 C 160.9375 140.722656 160.855469 140.683594 160.816406 140.683594 C 160.203125 140.683594 159.714844 141.171875 159.714844 141.78125 C 159.714844 142.394531 160.203125 142.882812 160.816406 142.882812 C 161.425781 142.882812 161.917969 142.394531 161.917969 141.78125 C 161.917969 141.375 161.710938 141.046875 161.425781 140.84375 C 161.996094 141.089844 162.566406 141.292969 163.179688 141.496094 L 163.015625 141.496094 C 162.363281 141.496094 161.835938 142.027344 161.835938 142.679688 C 161.835938 143.332031 162.363281 143.859375 163.015625 143.859375 C 163.667969 143.859375 164.199219 143.332031 164.199219 142.679688 C 164.199219 142.230469 163.953125 141.863281 163.585938 141.660156 C 170.226562 143.902344 178.496094 144.757812 187.621094 143.820312 C 196.746094 144.757812 205.019531 143.902344 211.65625 141.660156 C 211.292969 141.863281 211.046875 142.230469 211.046875 142.679688 C 211.046875 143.332031 211.578125 143.859375 212.226562 143.859375 C 212.878906 143.859375 213.410156 143.332031 213.410156 142.679688 C 213.410156 142.027344 212.878906 141.496094 212.226562 141.496094 L 212.066406 141.496094 C 212.675781 141.292969 213.246094 141.089844 213.816406 140.84375 C 213.53125 141.046875 213.328125 141.375 213.328125 141.78125 C 213.328125 142.394531 213.816406 142.882812 214.429688 142.882812 C 215.039062 142.882812 215.527344 142.394531 215.527344 141.78125 C 215.527344 141.171875 215.039062 140.683594 214.429688 140.683594 C 214.347656 140.683594 214.265625 140.683594 214.222656 140.722656 C 218.542969 138.929688 222.003906 136.527344 224.410156 133.632812 C 217.199219 139.5 209.660156 142.148438 202.003906 143.207031 C 207.910156 142.109375 218.21875 137.871094 225.386719 128.785156 C 226.324219 127.890625 227.546875 127.074219 228.972656 126.628906 C 230.601562 126.058594 233.046875 126.136719 234.59375 127.5625 C 235.816406 128.703125 236.425781 130.171875 235.855469 132.332031 C 235.125 133.472656 234.1875 134.125 232.882812 133.917969 C 231.089844 133.1875 231.089844 131.558594 231.78125 129.558594 C 230.480469 130.660156 230.4375 132.003906 231.253906 133.59375 C 231.988281 134.695312 233.738281 135.058594 235.203125 134.125 C 236.46875 133.226562 236.996094 131.921875 236.792969 130.210938 C 236.589844 128.867188 236.222656 127.199219 232.71875 125.851562 C 231.335938 125.445312 228.851562 125.648438 227.425781 126.34375 C 231.050781 122.226562 233.617188 117.378906 237.363281 112.980469 C 240.988281 108.253906 244.980469 104.097656 249.546875 100.839844 C 253.210938 97.90625 257.652344 96.519531 262.460938 96.277344 Z M 224.855469 121.25 C 225.265625 116.851562 224.816406 112.859375 222.902344 109.515625 C 221.027344 106.707031 218.789062 104.464844 215.691406 102.550781 C 214.386719 101.859375 215.730469 101.085938 216.75 101.449219 C 220.292969 103.242188 222.085938 106.054688 223.59375 109.070312 C 225.753906 113.101562 225.589844 118.722656 224.855469 121.25 Z M 228.523438 117.867188 C 230.96875 109.597656 234.757812 102.429688 239.847656 96.234375 C 240.828125 94.769531 243.71875 95.542969 241.683594 98.027344 C 234.308594 104.792969 230.601562 111.554688 228.523438 117.867188 Z M 252.476562 136.730469 C 251.664062 132.535156 250.605469 128.378906 247.101562 125.8125 C 242.414062 120.925781 232.882812 122.675781 231.007812 124.46875 C 233.453125 121.25 243.882812 120.109375 248.609375 124.222656 C 252.886719 127.15625 253.617188 131.433594 252.476562 136.730469 Z M 216.832031 131.679688 C 217.6875 129.558594 217.726562 127.441406 216.179688 125.363281 C 214.714844 123.816406 213.980469 122.308594 214.796875 121.003906 C 215.40625 120.394531 216.382812 120.636719 216.832031 121.699219 C 216.953125 122.066406 216.464844 122.351562 216.261719 122.023438 C 215.527344 120.597656 214.796875 121.820312 215.40625 122.511719 C 220.417969 126.75 219.316406 129.398438 216.832031 131.679688 Z M 229.339844 125.527344 C 231.988281 123.449219 234.757812 122.796875 238.136719 128.378906 C 238.707031 129.113281 240.054688 128.582031 238.75 127.644531 C 238.464844 127.359375 238.871094 126.953125 239.199219 127.117188 C 240.175781 127.726562 240.257812 128.746094 239.5625 129.234375 C 238.136719 129.84375 236.792969 128.910156 235.488281 127.199219 C 233.65625 125.363281 231.578125 125.039062 229.339844 125.527344 Z M 227.628906 108.90625 C 227.789062 110.496094 228.074219 112.328125 228.035156 114.363281 C 227.667969 118.152344 226.894531 120.71875 225.875 122.757812 C 226.648438 119.988281 226.894531 117.136719 226.8125 114.488281 C 226.855469 112.652344 226.363281 109.558594 227.628906 108.90625 Z M 243.839844 114.570312 C 239.117188 116.402344 235 118.886719 231.417969 122.066406 C 232.761719 119.988281 234.347656 118.113281 236.753906 116.851562 C 238.953125 115.546875 241.316406 114.8125 243.839844 114.570312 Z M 252.4375 111.878906 C 251.050781 114.121094 247.101562 116.484375 244.371094 114.363281 C 245.511719 111.269531 248.851562 110.78125 252.4375 111.878906 Z M 228.808594 101.980469 C 229.949219 103.691406 230.277344 107.519531 227.871094 108.660156 C 226.039062 106.828125 226.730469 104.179688 228.808594 101.980469 Z M 198.214844 144.0625 C 198.621094 144.0625 198.949219 144.390625 198.949219 144.796875 C 198.949219 145.203125 198.621094 145.53125 198.214844 145.53125 C 197.808594 145.53125 197.480469 145.203125 197.480469 144.796875 C 197.480469 144.390625 197.808594 144.0625 198.214844 144.0625 Z M 200.945312 143.941406 C 201.390625 143.941406 201.757812 144.308594 201.757812 144.757812 C 201.757812 145.203125 201.390625 145.570312 200.945312 145.570312 C 200.496094 145.570312 200.128906 145.203125 200.128906 144.757812 C 200.128906 144.308594 200.496094 143.941406 200.945312 143.941406 Z M 203.796875 143.617188 C 204.324219 143.617188 204.773438 144.0625 204.773438 144.59375 C 204.773438 145.121094 204.324219 145.570312 203.796875 145.570312 C 203.265625 145.570312 202.816406 145.121094 202.816406 144.59375 C 202.816406 144.0625 203.226562 143.617188 203.796875 143.617188 Z M 206.566406 143.167969 C 207.136719 143.167969 207.625 143.65625 207.625 144.226562 C 207.625 144.796875 207.136719 145.285156 206.566406 145.285156 C 205.996094 145.285156 205.507812 144.796875 205.507812 144.226562 C 205.507812 143.65625 205.996094 143.167969 206.566406 143.167969 Z M 209.296875 142.515625 C 209.90625 142.515625 210.394531 143.003906 210.394531 143.617188 C 210.394531 144.226562 209.90625 144.714844 209.296875 144.714844 C 208.683594 144.714844 208.195312 144.226562 208.195312 143.617188 C 208.195312 143.046875 208.683594 142.515625 209.296875 142.515625 Z M 216.34375 139.785156 C 216.914062 139.785156 217.402344 140.273438 217.402344 140.84375 C 217.402344 141.414062 216.914062 141.902344 216.34375 141.902344 C 215.773438 141.902344 215.285156 141.414062 215.285156 140.84375 C 215.324219 140.234375 215.773438 139.785156 216.34375 139.785156 Z M 218.421875 138.808594 C 218.949219 138.808594 219.359375 139.214844 219.359375 139.746094 C 219.359375 140.273438 218.949219 140.683594 218.421875 140.683594 C 217.890625 140.683594 217.484375 140.273438 217.484375 139.746094 C 217.484375 139.214844 217.890625 138.808594 218.421875 138.808594 Z M 220.375 137.667969 C 220.863281 137.667969 221.230469 138.035156 221.230469 138.523438 C 221.230469 139.011719 220.863281 139.378906 220.375 139.378906 C 219.886719 139.378906 219.519531 139.011719 219.519531 138.523438 C 219.519531 138.074219 219.929688 137.667969 220.375 137.667969 Z M 150.101562 121.25 C 149.367188 118.722656 149.207031 113.101562 151.363281 109.070312 C 152.832031 106.054688 154.664062 103.242188 158.207031 101.449219 C 159.269531 101.085938 160.570312 101.859375 159.269531 102.550781 C 156.171875 104.464844 153.929688 106.746094 152.058594 109.515625 C 150.140625 112.859375 149.695312 116.851562 150.101562 121.25 Z M 146.433594 117.867188 C 144.359375 111.554688 140.691406 104.75 133.277344 98.027344 C 131.238281 95.585938 134.132812 94.769531 135.109375 96.234375 C 140.203125 102.429688 143.992188 109.597656 146.433594 117.867188 Z M 122.480469 136.730469 C 121.339844 131.433594 122.074219 127.117188 126.351562 124.183594 C 131.078125 120.066406 141.507812 121.25 143.949219 124.425781 C 142.078125 122.636719 132.542969 120.925781 127.859375 125.773438 C 124.355469 128.378906 123.253906 132.535156 122.480469 136.730469 Z M 158.128906 131.679688 C 155.640625 129.398438 154.542969 126.75 159.511719 122.554688 C 160.125 121.859375 159.390625 120.636719 158.65625 122.066406 C 158.414062 122.390625 157.921875 122.066406 158.085938 121.738281 C 158.535156 120.679688 159.511719 120.433594 160.125 121.046875 C 160.9375 122.351562 160.246094 123.855469 158.738281 125.40625 C 157.230469 127.441406 157.273438 129.519531 158.128906 131.679688 Z M 145.621094 125.527344 C 143.378906 125.039062 141.300781 125.324219 139.507812 127.199219 C 138.207031 128.910156 136.863281 129.84375 135.4375 129.234375 C 134.742188 128.746094 134.824219 127.726562 135.800781 127.117188 C 136.128906 126.914062 136.496094 127.359375 136.25 127.644531 C 134.988281 128.582031 136.292969 129.113281 136.863281 128.378906 C 140.203125 122.796875 142.972656 123.449219 145.621094 125.527344 Z M 147.332031 108.90625 C 148.59375 109.558594 148.105469 112.652344 148.144531 114.445312 C 148.023438 117.136719 148.269531 119.945312 149.082031 122.714844 C 148.066406 120.679688 147.289062 118.152344 146.925781 114.324219 C 146.882812 112.328125 147.167969 110.535156 147.332031 108.90625 Z M 131.117188 114.570312 C 133.644531 114.855469 136.046875 115.585938 138.207031 116.808594 C 140.609375 118.070312 142.199219 119.945312 143.542969 122.023438 C 139.917969 118.886719 135.800781 116.359375 131.117188 114.570312 Z M 122.523438 111.878906 C 126.105469 110.78125 129.449219 111.269531 130.589844 114.363281 C 127.859375 116.484375 123.90625 114.121094 122.523438 111.878906 Z M 146.148438 101.980469 C 148.269531 104.140625 148.960938 106.828125 147.085938 108.660156 C 144.644531 107.519531 144.96875 103.730469 146.148438 101.980469 Z M 176.703125 144.0625 C 177.113281 144.0625 177.4375 144.390625 177.4375 144.796875 C 177.4375 145.203125 177.113281 145.53125 176.703125 145.53125 C 176.296875 145.53125 175.972656 145.203125 175.972656 144.796875 C 176.011719 144.390625 176.335938 144.0625 176.703125 144.0625 Z M 174.015625 143.941406 C 174.464844 143.941406 174.832031 144.308594 174.832031 144.757812 C 174.832031 145.203125 174.464844 145.570312 174.015625 145.570312 C 173.566406 145.570312 173.199219 145.203125 173.199219 144.757812 C 173.199219 144.308594 173.566406 143.941406 174.015625 143.941406 Z M 171.164062 143.617188 C 171.691406 143.617188 172.140625 144.0625 172.140625 144.59375 C 172.140625 145.121094 171.691406 145.570312 171.164062 145.570312 C 170.632812 145.570312 170.1875 145.121094 170.1875 144.59375 C 170.1875 144.0625 170.632812 143.617188 171.164062 143.617188 Z M 168.394531 143.167969 C 168.964844 143.167969 169.453125 143.65625 169.453125 144.226562 C 169.453125 144.796875 168.964844 145.285156 168.394531 145.285156 C 167.824219 145.285156 167.335938 144.796875 167.335938 144.226562 C 167.335938 143.65625 167.78125 143.167969 168.394531 143.167969 Z M 165.664062 142.515625 C 166.273438 142.515625 166.765625 143.003906 166.765625 143.617188 C 166.765625 144.226562 166.273438 144.714844 165.664062 144.714844 C 165.054688 144.714844 164.5625 144.226562 164.5625 143.617188 C 164.5625 143.046875 165.054688 142.515625 165.664062 142.515625 Z M 158.574219 139.785156 C 159.144531 139.785156 159.632812 140.273438 159.632812 140.84375 C 159.632812 141.414062 159.144531 141.902344 158.574219 141.902344 C 158.003906 141.902344 157.515625 141.414062 157.515625 140.84375 C 157.558594 140.234375 158.003906 139.785156 158.574219 139.785156 Z M 156.539062 138.808594 C 157.066406 138.808594 157.476562 139.214844 157.476562 139.746094 C 157.476562 140.273438 157.066406 140.683594 156.539062 140.683594 C 156.007812 140.683594 155.601562 140.273438 155.601562 139.746094 C 155.601562 139.214844 156.007812 138.808594 156.539062 138.808594 Z M 154.542969 137.667969 C 155.03125 137.667969 155.398438 138.035156 155.398438 138.523438 C 155.398438 139.011719 155.03125 139.378906 154.542969 139.378906 C 154.054688 139.378906 153.6875 139.011719 153.6875 138.523438 C 153.6875 138.074219 154.09375 137.667969 154.542969 137.667969 Z M 154.542969 137.667969 " fill-opacity="1" fill-rule="evenodd"/></g><g fill="#ffffff" fill-opacity="1"><g transform="translate(128.621422, 331.649978)"><g><path d="M 17.453125 0 L 17.453125 -9.3125 L 4.6875 -9.3125 L 4.6875 0 L 3.4375 0 L 3.4375 -18.59375 L 4.6875 -18.59375 L 4.6875 -10.421875 L 17.453125 -10.421875 L 17.453125 -18.59375 L 18.6875 -18.59375 L 18.6875 0 Z M 17.453125 0 "/></g></g></g><g fill="#ffffff" fill-opacity="1"><g transform="translate(154.718781, 331.649978)"><g><path d="M 4.921875 -2.46875 C 3.203125 -4.320312 2.34375 -6.597656 2.34375 -9.296875 C 2.34375 -12.003906 3.203125 -14.28125 4.921875 -16.125 C 6.648438 -17.976562 8.832031 -18.90625 11.46875 -18.90625 C 14.101562 -18.90625 16.285156 -17.976562 18.015625 -16.125 C 19.753906 -14.28125 20.625 -12.003906 20.625 -9.296875 C 20.625 -6.597656 19.753906 -4.320312 18.015625 -2.46875 C 16.285156 -0.613281 14.101562 0.3125 11.46875 0.3125 C 8.832031 0.3125 6.648438 -0.613281 4.921875 -2.46875 Z M 5.84375 -15.328125 C 4.40625 -13.703125 3.6875 -11.691406 3.6875 -9.296875 C 3.6875 -6.910156 4.410156 -4.898438 5.859375 -3.265625 C 7.304688 -1.640625 9.175781 -0.828125 11.46875 -0.828125 C 13.769531 -0.828125 15.644531 -1.640625 17.09375 -3.265625 C 18.539062 -4.898438 19.265625 -6.910156 19.265625 -9.296875 C 19.265625 -11.691406 18.539062 -13.703125 17.09375 -15.328125 C 15.644531 -16.953125 13.769531 -17.765625 11.46875 -17.765625 C 9.164062 -17.765625 7.289062 -16.953125 5.84375 -15.328125 Z M 5.84375 -15.328125 "/></g></g></g><g fill="#ffffff" fill-opacity="1"><g transform="translate(181.647898, 331.649978)"><g><path d="M 6.859375 -17.5 L 0.578125 -17.5 L 0.578125 -18.59375 L 14.40625 -18.59375 L 14.40625 -17.5 L 8.109375 -17.5 L 8.109375 0 L 6.859375 0 Z M 6.859375 -17.5 "/></g></g></g><g fill="#ffffff" fill-opacity="1"><g transform="translate(200.597407, 331.649978)"><g><path d="M 3.4375 0 L 3.4375 -18.59375 L 12.0625 -18.59375 L 12.0625 -17.5 L 4.6875 -17.5 L 4.6875 -10.65625 L 11.359375 -10.65625 L 11.359375 -9.59375 L 4.6875 -9.59375 L 4.6875 -1.09375 L 12.34375 -1.09375 L 12.34375 0 Z M 3.4375 0 "/></g></g></g><g fill="#ffffff" fill-opacity="1"><g transform="translate(218.481226, 331.649978)"><g><path d="M 3.4375 0 L 3.4375 -18.59375 L 4.6875 -18.59375 L 4.6875 -1.140625 L 13.234375 -1.140625 L 13.234375 0 Z M 3.4375 0 "/></g></g></g><g fill="#ffffff" fill-opacity="1"><g transform="translate(236.261075, 331.649978)"><g><path d="M 11.46875 -16.953125 C 10.195312 -17.492188 8.941406 -17.765625 7.703125 -17.765625 C 5.171875 -17.765625 3.90625 -16.828125 3.90625 -14.953125 C 3.90625 -14.140625 4.1875 -13.378906 4.75 -12.671875 C 5.320312 -11.972656 6.015625 -11.347656 6.828125 -10.796875 C 7.648438 -10.253906 8.46875 -9.695312 9.28125 -9.125 C 10.09375 -8.550781 10.785156 -7.863281 11.359375 -7.0625 C 11.929688 -6.269531 12.21875 -5.40625 12.21875 -4.46875 C 12.21875 -2.894531 11.6875 -1.703125 10.625 -0.890625 C 9.570312 -0.0859375 8.113281 0.3125 6.25 0.3125 C 4.382812 0.3125 2.796875 -0.164062 1.484375 -1.125 L 2.109375 -2.046875 C 3.359375 -1.234375 4.726562 -0.828125 6.21875 -0.828125 C 7.707031 -0.828125 8.847656 -1.125 9.640625 -1.71875 C 10.441406 -2.320312 10.84375 -3.1875 10.84375 -4.3125 C 10.84375 -5.09375 10.554688 -5.832031 9.984375 -6.53125 C 9.410156 -7.238281 8.71875 -7.875 7.90625 -8.4375 C 7.09375 -9 6.273438 -9.570312 5.453125 -10.15625 C 4.640625 -10.75 3.945312 -11.453125 3.375 -12.265625 C 2.800781 -13.085938 2.515625 -13.960938 2.515625 -14.890625 C 2.515625 -16.128906 2.96875 -17.109375 3.875 -17.828125 C 4.789062 -18.546875 6.023438 -18.90625 7.578125 -18.90625 C 9.128906 -18.90625 10.570312 -18.59375 11.90625 -17.96875 Z M 11.46875 -16.953125 "/></g></g></g><g fill="#ffffff" fill-opacity="1"><g transform="translate(75.307678, 286.735733)"><g><path d="M 25.195312 0.316406 C 26.09375 0.316406 27.265625 0.226562 27.941406 0 L 27.941406 -0.539062 C 27.714844 -0.496094 27.492188 -0.496094 27.21875 -0.496094 C 25.691406 -0.496094 24.789062 -1.980469 22.632812 -7.378906 C 20.472656 -12.914062 19.617188 -15.65625 14.082031 -16.378906 C 19.933594 -17.050781 22.992188 -20.246094 22.992188 -24.476562 C 22.992188 -28.480469 20.292969 -31.496094 11.15625 -31.496094 L 2.292969 -31.496094 L 2.292969 -30.910156 C 3.6875 -30.503906 4.09375 -29.46875 4.09375 -25.78125 L 4.09375 -5.714844 C 4.09375 -2.023438 3.6875 -0.988281 2.292969 -0.585938 L 2.292969 0 L 9.582031 0 L 9.582031 -0.585938 C 8.1875 -0.988281 7.785156 -2.023438 7.785156 -5.714844 L 7.785156 -16.242188 L 10.664062 -16.242188 C 16.0625 -16.242188 16.421875 -13.09375 19.03125 -6.882812 C 21.011719 -2.203125 21.730469 0.316406 25.195312 0.316406 Z M 7.785156 -16.917969 L 7.785156 -30.730469 C 8.503906 -30.773438 9.222656 -30.820312 9.898438 -30.820312 C 16.558594 -30.820312 19.167969 -27.445312 19.167969 -23.441406 C 19.167969 -19.617188 16.738281 -16.917969 11.5625 -16.917969 Z M 7.785156 -16.917969 "/></g></g></g><g fill="#ffffff" fill-opacity="1"><g transform="translate(123.405464, 286.735733)"><g><path d="M 18.355469 0.449219 C 25.914062 0.449219 34.285156 -4.5 34.285156 -15.613281 C 34.285156 -26.636719 25.960938 -31.855469 18.355469 -31.855469 C 8.820312 -31.855469 2.339844 -25.015625 2.339844 -15.792969 C 2.339844 -4.632812 10.707031 0.449219 18.355469 0.449219 Z M 5.9375 -18.402344 C 5.667969 -25.734375 9.671875 -30.820312 16.511719 -30.820312 C 24.566406 -30.820312 30.460938 -22.046875 30.773438 -12.644531 C 31 -5.894531 27.445312 -0.675781 20.246094 -0.675781 C 12.191406 -0.675781 6.253906 -9.359375 5.9375 -18.402344 Z M 5.9375 -18.402344 "/></g></g></g><g fill="#ffffff" fill-opacity="1"><g transform="translate(180.545903, 286.735733)"><g><path d="M 8.503906 0 L 15.835938 0 L 15.835938 -0.585938 C 14.441406 -0.988281 14.039062 -2.023438 14.039062 -5.714844 L 14.039062 -14.261719 L 20.921875 -26.5 C 22.722656 -29.695312 24.117188 -30.503906 25.332031 -30.910156 L 25.332031 -31.496094 L 19.976562 -31.496094 L 19.976562 -30.910156 C 21.6875 -30.59375 21.640625 -29.246094 20.113281 -26.5 L 13.8125 -15.34375 L 7.558594 -26.5 C 5.757812 -29.695312 5.21875 -30.503906 6.570312 -30.910156 L 6.570312 -31.496094 L -0.539062 -31.496094 L -0.539062 -30.910156 C 0.40625 -30.503906 1.710938 -29.695312 3.464844 -26.5 L 10.257812 -14.171875 L 10.257812 -5.714844 C 10.304688 -2.023438 9.851562 -0.988281 8.503906 -0.585938 Z M 8.503906 0 "/></g></g></g><g fill="#ffffff" fill-opacity="1"><g transform="translate(225.854409, 286.735733)"><g><path d="M -0.765625 0 L 4.320312 0 L 4.320312 -0.585938 C 2.789062 -0.898438 2.609375 -2.382812 3.78125 -5.308594 L 6.433594 -11.878906 L 19.121094 -11.878906 L 21.867188 -5.265625 C 23.304688 -1.890625 23.667969 -0.988281 22.269531 -0.585938 L 22.269531 0 L 29.246094 0 L 29.246094 -0.585938 C 28.300781 -0.988281 27.21875 -1.890625 25.824219 -5.265625 L 14.757812 -31.855469 L 11.382812 -30.324219 L 11.789062 -29.378906 C 12.148438 -28.660156 12.191406 -28.074219 11.878906 -27.265625 L 3.015625 -5.308594 C 1.621094 -1.890625 0.496094 -0.988281 -0.765625 -0.585938 Z M 6.703125 -12.554688 L 12.6875 -27.355469 L 18.851562 -12.554688 Z M 6.703125 -12.554688 "/></g></g></g><g fill="#ffffff" fill-opacity="1"><g transform="translate(275.256868, 286.735733)"><g><path d="M 2.292969 0 L 23.214844 0 L 23.53125 -5.085938 L 23.035156 -5.175781 C 21.460938 -1.800781 19.480469 -0.71875 15.164062 -0.71875 L 9.808594 -0.71875 C 8.503906 -0.71875 7.785156 -1.441406 7.785156 -2.746094 L 7.785156 -25.78125 C 7.785156 -29.46875 8.1875 -30.503906 9.582031 -30.910156 L 9.582031 -31.496094 L 2.292969 -31.496094 L 2.292969 -30.910156 C 3.644531 -30.503906 4.09375 -29.46875 4.09375 -25.78125 L 4.09375 -5.714844 C 4.09375 -2.023438 3.644531 -0.988281 2.292969 -0.585938 Z M 2.292969 0 "/></g></g></g><g fill="#d49b35" fill-opacity="1"><g transform="translate(172.260023, 184.587482)"><g><path d="M 31.03125 -2.34375 C 30.3125 -1.28125 29.585938 -0.515625 28.859375 -0.046875 C 28.140625 0.421875 27.1875 0.65625 26 0.65625 C 24.71875 0.65625 23.660156 0.28125 22.828125 -0.46875 C 21.992188 -1.21875 21.375 -2.535156 20.96875 -4.421875 L 19.9375 -9.125 C 19.5625 -10.75 19.207031 -12 18.875 -12.875 C 18.550781 -13.757812 18.054688 -14.46875 17.390625 -15 C 16.734375 -15.53125 15.8125 -15.796875 14.625 -15.796875 L 10.15625 -15.796875 L 10.15625 -4.984375 C 10.15625 -3.796875 10.25 -2.929688 10.4375 -2.390625 C 10.625 -1.859375 10.972656 -1.5 11.484375 -1.3125 C 12.003906 -1.125 12.832031 -1 13.96875 -0.9375 L 13.96875 0 C 12.519531 -0.09375 10.53125 -0.140625 8 -0.140625 C 5.300781 -0.140625 3.289062 -0.09375 1.96875 0 L 1.96875 -0.9375 C 3.101562 -1 3.925781 -1.125 4.4375 -1.3125 C 4.957031 -1.5 5.3125 -1.859375 5.5 -2.390625 C 5.6875 -2.929688 5.78125 -3.796875 5.78125 -4.984375 L 5.78125 -28.296875 C 5.78125 -29.492188 5.6875 -30.359375 5.5 -30.890625 C 5.3125 -31.421875 4.957031 -31.78125 4.4375 -31.96875 C 3.925781 -32.15625 3.101562 -32.28125 1.96875 -32.34375 L 1.96875 -33.28125 C 3.289062 -33.1875 5.203125 -33.140625 7.703125 -33.140625 L 12.78125 -33.1875 C 13.382812 -33.21875 14.0625 -33.234375 14.8125 -33.234375 C 18.445312 -33.234375 21.242188 -32.472656 23.203125 -30.953125 C 25.160156 -29.429688 26.140625 -27.46875 26.140625 -25.0625 C 26.140625 -23.832031 25.847656 -22.597656 25.265625 -21.359375 C 24.691406 -20.128906 23.722656 -19.019531 22.359375 -18.03125 C 20.992188 -17.039062 19.210938 -16.375 17.015625 -16.03125 L 17.578125 -15.9375 C 19.648438 -15.59375 21.15625 -14.960938 22.09375 -14.046875 C 23.039062 -13.140625 23.734375 -11.703125 24.171875 -9.734375 L 25.34375 -4.9375 C 25.65625 -3.5 25.984375 -2.492188 26.328125 -1.921875 C 26.671875 -1.359375 27.140625 -1.078125 27.734375 -1.078125 C 28.265625 -1.078125 28.710938 -1.21875 29.078125 -1.5 C 29.441406 -1.78125 29.859375 -2.238281 30.328125 -2.875 Z M 13.640625 -32.34375 C 12.660156 -32.34375 11.925781 -32.234375 11.4375 -32.015625 C 10.957031 -31.796875 10.625 -31.40625 10.4375 -30.84375 C 10.25 -30.28125 10.15625 -29.429688 10.15625 -28.296875 L 10.15625 -16.734375 L 13.3125 -16.734375 C 16.40625 -16.734375 18.53125 -17.421875 19.6875 -18.796875 C 20.851562 -20.179688 21.4375 -22.097656 21.4375 -24.546875 C 21.4375 -27.109375 20.820312 -29.046875 19.59375 -30.359375 C 18.375 -31.679688 16.390625 -32.34375 13.640625 -32.34375 Z M 13.640625 -32.34375 "/></g></g></g></svg>