<svg xmlns="http://www.w3.org/2000/svg" xmlns:xlink="http://www.w3.org/1999/xlink" width="1366" zoomAndPan="magnify" viewBox="0 0 1024.5 576" height="768" preserveAspectRatio="xMidYMid meet" version="1.0"><defs><clipPath id="0b43738553"><path d="M 447 216 L 587.816406 216 L 587.816406 402.992188 L 447 402.992188 Z M 447 216 " clip-rule="nonzero"/></clipPath><clipPath id="5ffb7fee1d"><path d="M 436.390625 172.855469 L 577 172.855469 L 577 360 L 436.390625 360 Z M 436.390625 172.855469 " clip-rule="nonzero"/></clipPath></defs><g clip-path="url(#0b43738553)"><path fill="#000000" d="M 587.816406 216.789062 L 535.265625 287.957031 L 582.277344 355.066406 L 585.027344 358.992188 L 585.160156 359.1875 L 580.195312 359.121094 L 569.785156 358.992188 L 546.230469 358.691406 L 545.109375 358.679688 L 544.5 357.808594 L 513.597656 314.003906 L 480.113281 358.992188 L 447.386719 402.96875 L 478.414062 358.992188 L 512.472656 310.726562 L 513.597656 309.128906 L 514.792969 310.726562 L 547.292969 354.417969 L 575.160156 354.0625 L 527.824219 290.007812 L 526.292969 287.9375 L 527.832031 285.761719 L 576.570312 216.789062 Z M 587.816406 216.789062 " fill-opacity="1" fill-rule="nonzero"/></g><g clip-path="url(#5ffb7fee1d)"><path fill="#000000" d="M 436.390625 359.070312 L 488.9375 287.902344 L 441.925781 220.792969 L 439.179688 216.867188 L 439.042969 216.671875 L 444.007812 216.738281 L 454.421875 216.867188 L 477.972656 217.167969 L 479.09375 217.179688 L 479.707031 218.046875 L 510.605469 261.855469 L 544.089844 216.867188 L 576.820312 172.890625 L 545.789062 216.867188 L 511.734375 265.132812 L 510.605469 266.730469 L 509.414062 265.132812 L 476.910156 221.441406 L 449.046875 221.796875 L 496.382812 285.851562 L 497.910156 287.921875 L 496.371094 290.097656 L 447.632812 359.070312 Z M 436.390625 359.070312 " fill-opacity="1" fill-rule="nonzero"/></g></svg>