<svg xmlns="http://www.w3.org/2000/svg" xmlns:xlink="http://www.w3.org/1999/xlink" width="1366" zoomAndPan="magnify" viewBox="0 0 1024.5 576" height="768" preserveAspectRatio="xMidYMid meet" version="1.0"><defs><clipPath id="e7910f58e3"><path d="M 486 213 L 617.609375 213 L 617.609375 402.992188 L 486 402.992188 Z M 486 213 " clip-rule="nonzero"/></clipPath><clipPath id="156b5286b8"><path d="M 406.210938 173 L 538 173 L 538 362 L 406.210938 362 Z M 406.210938 173 " clip-rule="nonzero"/></clipPath></defs><g clip-path="url(#e7910f58e3)"><path fill="#ffffff" d="M 617.671875 402.238281 C 611.585938 392.542969 605.496094 382.847656 599.402344 373.152344 L 590.253906 358.644531 L 581.074219 344.128906 L 562.679688 315.125 L 545.425781 287.953125 L 567.640625 255.332031 L 573.492188 246.753906 C 575.449219 243.902344 577.390625 241.039062 579.359375 238.191406 L 591.175781 221.121094 L 595.953125 214.21875 L 532.945312 213.792969 L 531.617188 216.167969 C 529.675781 219.644531 527.777344 223.140625 525.859375 226.628906 L 524.425781 229.25 L 523.015625 231.886719 L 520.171875 237.136719 L 514.554688 247.679688 L 511.695312 253.121094 C 510.601562 251.460938 509.511719 249.808594 508.417969 248.15625 L 505.066406 243.144531 L 501.683594 238.148438 L 498.300781 233.167969 L 494.871094 228.207031 C 492.574219 224.898438 490.242188 221.617188 487.875 218.359375 C 487.808594 218.242188 487.707031 218.164062 487.578125 218.132812 C 487.445312 218.097656 487.324219 218.113281 487.207031 218.183594 C 487.089844 218.25 487.015625 218.351562 486.980469 218.480469 C 486.945312 218.613281 486.960938 218.734375 487.03125 218.851562 C 488.746094 222.488281 490.511719 226.105469 492.324219 229.699219 L 495.035156 235.085938 L 497.785156 240.457031 L 500.554688 245.8125 L 503.351562 251.148438 C 505.230469 254.695312 507.109375 258.25 509.015625 261.785156 L 511.769531 266.882812 L 515.046875 261.742188 C 517.1875 258.378906 519.277344 255 521.390625 251.625 L 527.675781 241.476562 L 530.792969 236.382812 L 532.347656 233.84375 L 533.890625 231.308594 C 535.453125 228.722656 537.015625 226.144531 538.5625 223.554688 C 539.800781 223.554688 577.46875 223.410156 578.96875 223.382812 L 572.492188 233.664062 C 570.652344 236.59375 568.78125 239.5 566.921875 242.421875 L 561.332031 251.164062 L 538.945312 286.132812 L 537.777344 287.953125 L 538.945312 289.644531 L 558.355469 317.976562 L 577.808594 346.28125 L 587.535156 360.429688 L 597.296875 374.558594 C 603.796875 383.992188 610.320312 393.402344 616.867188 402.789062 C 616.941406 402.898438 617.042969 402.964844 617.171875 402.992188 C 617.300781 403.015625 617.421875 402.992188 617.53125 402.917969 C 617.640625 402.847656 617.710938 402.746094 617.738281 402.617188 C 617.765625 402.488281 617.742188 402.367188 617.671875 402.257812 Z M 617.671875 402.238281 " fill-opacity="1" fill-rule="nonzero"/></g><g clip-path="url(#156b5286b8)"><path fill="#ffffff" d="M 531.714844 346.082031 L 529.003906 340.691406 L 526.257812 335.324219 L 523.484375 329.972656 L 520.6875 324.632812 C 518.804688 321.082031 516.933594 317.53125 515.023438 314 L 512.269531 308.894531 L 508.992188 314.042969 C 506.851562 317.398438 504.761719 320.78125 502.648438 324.15625 L 496.359375 334.304688 L 493.246094 339.402344 L 491.6875 341.9375 L 490.148438 344.476562 C 488.589844 347.0625 487.039062 349.644531 485.496094 352.226562 C 484.261719 352.226562 446.589844 352.375 445.089844 352.40625 L 451.546875 342.125 C 453.390625 339.195312 455.261719 336.285156 457.121094 333.367188 L 462.710938 324.617188 L 485.097656 289.648438 L 486.261719 287.832031 L 485.097656 286.140625 L 465.6875 257.863281 L 446.234375 229.621094 L 436.507812 215.503906 L 426.738281 201.402344 C 420.242188 192 413.722656 182.609375 407.171875 173.238281 C 407.097656 173.132812 407 173.066406 406.875 173.042969 C 406.746094 173.015625 406.628906 173.035156 406.519531 173.105469 C 406.410156 173.175781 406.339844 173.277344 406.308594 173.40625 C 406.277344 173.535156 406.300781 173.65625 406.367188 173.769531 C 412.457031 183.449219 418.546875 193.125 424.636719 202.796875 L 433.785156 217.296875 L 442.964844 231.777344 L 461.351562 260.726562 L 478.609375 287.835938 L 456.410156 320.457031 L 450.558594 329.03125 C 448.601562 331.882812 446.664062 334.75 444.691406 337.597656 L 432.875 354.667969 L 428.101562 361.570312 L 491.113281 361.992188 L 492.445312 359.597656 C 494.382812 356.125 496.289062 352.625 498.199219 349.136719 L 499.632812 346.515625 L 501.054688 343.890625 L 503.894531 338.636719 L 509.480469 328.105469 L 512.34375 322.671875 L 515.621094 327.628906 L 518.972656 332.640625 L 522.355469 337.636719 L 525.738281 342.621094 L 529.167969 347.582031 C 531.460938 350.886719 533.792969 354.167969 536.160156 357.425781 C 536.234375 357.527344 536.332031 357.585938 536.453125 357.613281 C 536.574219 357.636719 536.691406 357.617188 536.796875 357.554688 C 536.902344 357.492188 536.972656 357.398438 537.011719 357.28125 C 537.046875 357.164062 537.039062 357.046875 536.988281 356.933594 C 535.285156 353.308594 533.527344 349.691406 531.714844 346.082031 Z M 531.714844 346.082031 " fill-opacity="1" fill-rule="nonzero"/></g></svg>